<?xml version="1.0" encoding="utf-8"?>
<!-- Generator: Adobe Illustrator 15.1.0, SVG Export Plug-In . SVG Version: 6.00 Build 0)  -->
<!DOCTYPE svg PUBLIC "-//W3C//DTD SVG 1.1//EN" "http://www.w3.org/Graphics/SVG/1.1/DTD/svg11.dtd">
<svg version="1.1" id="Слой_1" xmlns="http://www.w3.org/2000/svg" xmlns:xlink="http://www.w3.org/1999/xlink" x="0px" y="0px"
	 width="580.021px" height="395.946px" viewBox="0 0 580.021 395.946" enable-background="new 0 0 580.021 395.946"
	 xml:space="preserve">
<g>
	<defs>
		<rect id="SVGID_1_" width="580.021" height="395.946"/>
	</defs>
	<clipPath id="SVGID_2_">
		<use xlink:href="#SVGID_1_"  overflow="visible"/>
	</clipPath>
	<g clip-path="url(#SVGID_2_)">
		<defs>
			<rect id="SVGID_3_" width="580.021" height="395.946"/>
		</defs>
		<clipPath id="SVGID_4_">
			<use xlink:href="#SVGID_3_"  overflow="visible"/>
		</clipPath>
		<g opacity="0.38" clip-path="url(#SVGID_4_)" enable-background="new    ">
			<g>
				<defs>
					<rect id="SVGID_5_" x="245.724" y="114.757" width="314.271" height="281.189"/>
				</defs>
				<clipPath id="SVGID_6_">
					<use xlink:href="#SVGID_5_"  overflow="visible"/>
				</clipPath>
				<path clip-path="url(#SVGID_6_)" fill="#231F20" d="M354.892,133.503c-51.826,6.616-90.422,49.621-90.422,100.346
					c0,4.41,0,7.719,1.103,12.13c6.616,50.724,49.623,89.317,101.449,89.317c4.41,0,8.821,0,12.13-1.102
					c51.826-6.616,90.422-49.622,90.422-100.346c0-4.411,0-7.72-1.104-12.131c-6.616-50.724-49.621-89.318-101.448-89.318
					C362.611,132.4,359.303,133.503,354.892,133.503 M543.454,392.638L543.454,392.638c0,0-84.908-68.368-90.422-72.778
					c-18.746,18.746-44.108,30.875-70.573,34.183c-4.41,1.104-9.924,1.104-14.335,1.104c-61.751,0-113.578-45.211-121.297-105.859
					c-1.103-4.411-1.103-9.925-1.103-14.335c0-60.649,46.314-112.476,106.961-119.092c4.411-1.103,9.926-1.103,14.336-1.103
					c61.752,0,113.578,45.211,121.298,105.859c1.102,4.411,1.102,9.925,1.102,14.336c0,25.362-8.821,50.724-23.156,70.572
					c5.514,4.411,90.421,72.778,90.421,72.778c2.206,2.205,3.31,4.411,3.31,7.72c0,2.205-1.104,4.411-2.206,6.616
					c-1.104,2.204-4.411,3.308-6.616,3.308h-1.103C547.865,394.842,545.659,393.741,543.454,392.638"/>
			</g>
		</g>
		<path clip-path="url(#SVGID_4_)" fill="#6395C4" d="M380.433,156.583c-30.138,0-54.939,22.814-58.097,52.112l-20.25-14.523
			c0.019-0.032,0.037-0.064,0.055-0.097l-2.688-1.792l-3.719-2.667l-0.082,0.133l-0.128-0.085c-0.563,1.014-1.138,2.038-1.703,3.054
			l-1.361,2.208l0.093,0.067c-15.677,28.121-32.261,57.089-48.855,85.093c-14.335,26.465-29.773,51.827-44.108,77.189V3.309
			c0-2.206-1.103-3.309-3.308-3.309c-2.206,0-4.411,1.103-4.411,1.103c-16.54,31.979-33.081,63.957-49.622,94.833
			c-15.437,29.773-31.978,60.648-47.416,91.524H4.411c-2.206,0-4.411,1.103-4.411,3.308s2.205,3.308,4.411,3.308h92.627
			c1.102,0,2.205-1.103,3.308-2.205c15.438-30.876,31.978-62.854,48.519-93.73c14.335-26.465,28.67-52.93,41.902-79.395v352.865
			c0,2.206,1.103,3.308,3.308,3.308h1.103c2.206,0,3.308,0,4.411-1.102c16.541-29.773,34.184-60.649,51.827-90.423
			c15.511-27.919,31.98-55.839,47.611-83.758l22.989,16.489c0.588,31.769,26.507,57.344,58.416,57.344
			c32.276,0,58.442-26.165,58.442-58.442S412.709,156.583,380.433,156.583z"/>
		<path clip-path="url(#SVGID_4_)" fill="#FFFFFF" d="M376.021,109.167c-51.827,6.616-90.422,49.622-90.422,100.346
			c0,4.411,0,7.719,1.103,12.13c6.616,50.725,49.623,89.319,101.449,89.319c4.41,0,8.821,0,12.13-1.104
			c51.826-6.615,90.422-49.622,90.422-100.346c0-4.411,0-7.719-1.104-12.13c-6.616-50.724-49.621-89.319-101.448-89.319
			C384.843,109.167,380.433,109.167,376.021,109.167 M564.584,369.406L564.584,369.406c0,0-84.908-68.368-90.422-72.778
			c-18.746,18.746-44.108,30.875-70.573,34.183h-15.438c-61.752,0-113.579-45.21-121.297-105.858
			c-1.102-4.411-1.102-9.925-1.102-14.335c0-60.649,46.313-112.477,106.962-119.092c4.411-1.103,9.924-1.103,14.335-1.103
			c61.751,0,113.578,45.211,121.297,105.86c1.104,4.41,1.104,9.924,1.104,14.335c0,25.361-8.822,50.724-23.157,70.572
			c5.514,4.411,90.422,72.778,90.422,72.778c2.205,2.206,3.308,4.411,3.308,7.719c0,2.205-1.103,4.411-2.206,6.616
			c-1.102,2.206-4.409,3.308-6.615,3.308h-1.104C568.995,371.61,566.789,370.508,564.584,369.406"/>
	</g>
</g>
</svg>
