<?xml version="1.0" encoding="utf-8"?>
<!-- Generator: Adobe Illustrator 15.1.0, SVG Export Plug-In . SVG Version: 6.00 Build 0)  -->
<!DOCTYPE svg PUBLIC "-//W3C//DTD SVG 1.1//EN" "http://www.w3.org/Graphics/SVG/1.1/DTD/svg11.dtd">
<svg version="1.1" id="Слой_1" xmlns="http://www.w3.org/2000/svg" xmlns:xlink="http://www.w3.org/1999/xlink" x="0px" y="0px"
	 width="43.149px" height="37.838px" viewBox="0 0 43.149 37.838" enable-background="new 0 0 43.149 37.838" xml:space="preserve">
<g enable-background="new    ">
	<g>
		<defs>
			<rect id="SVGID_1_" width="43.149" height="37.838"/>
		</defs>
		<clipPath id="SVGID_2_">
			<use xlink:href="#SVGID_1_"  overflow="visible"/>
		</clipPath>
		<g opacity="0.2" clip-path="url(#SVGID_2_)">
			<g>
				<defs>
					<rect id="SVGID_3_" y="2" width="41.149" height="35.838"/>
				</defs>
				<clipPath id="SVGID_4_">
					<use xlink:href="#SVGID_3_"  overflow="visible"/>
				</clipPath>
				<path clip-path="url(#SVGID_4_)" d="M36.006,24.398c0,0.353-0.288,0.641-0.644,0.641c-0.354,0-0.643-0.288-0.643-0.641
					c0-0.354,0.288-0.641,0.643-0.641C35.718,23.758,36.006,24.045,36.006,24.398 M33.434,24.398c0,1.061,0.863,1.92,1.929,1.92
					s1.928-0.859,1.928-1.92s-0.862-1.92-1.928-1.92S33.434,23.338,33.434,24.398 M39.863,28.879h-4.501
					c-2.486,0-4.501-2.006-4.501-4.48s2.015-4.479,4.501-4.479h4.501V28.879z M38.576,36.559H5.145
					c-2.131,0-3.858-1.721-3.858-3.841v-22.22c0.943,1.065,2.319,1.74,3.858,1.74h33.432v6.4h-3.214c-3.196,0-5.786,2.58-5.786,5.76
					s2.59,5.76,5.786,5.76h3.214V36.559z M34.72,10.959H5.145v-2.56H34.72V10.959z M5.145,5.839H34.72v1.28H5.145V5.839z
					 M5.145,3.279H37.29v7.68h-1.284v-5.12c0-0.707-0.576-1.28-1.286-1.28H5.145c-0.711,0-1.286,0.573-1.286,1.28v4.896
					C2.36,10.208,1.287,8.791,1.287,7.119C1.287,4.998,3.013,3.279,5.145,3.279 M39.863,18.638v-6.4
					c0-0.707-0.576-1.279-1.287-1.279v-8.32C38.576,2.286,38.289,2,37.935,2H5.145C2.303,2,0,4.292,0,7.119
					C0,7.292,0.009,7.462,0.026,7.63C0.018,7.674,0,7.714,0,7.759v24.958c0,2.827,2.303,5.12,5.144,5.12h33.432
					c0.711,0,1.287-0.572,1.287-1.279v-6.4c0.71,0,1.286-0.573,1.286-1.279v-8.96C41.149,19.211,40.572,18.638,39.863,18.638"/>
			</g>
		</g>
		<path clip-path="url(#SVGID_2_)" fill="#FFFFFF" d="M38.006,22.398c0,0.353-0.288,0.641-0.644,0.641
			c-0.354,0-0.643-0.288-0.643-0.641c0-0.354,0.288-0.641,0.643-0.641C37.718,21.758,38.006,22.045,38.006,22.398 M35.434,22.398
			c0,1.061,0.863,1.92,1.929,1.92s1.928-0.859,1.928-1.92s-0.862-1.92-1.928-1.92S35.434,21.338,35.434,22.398 M41.863,26.879
			h-4.501c-2.486,0-4.501-2.006-4.501-4.48s2.015-4.479,4.501-4.479h4.501V26.879z M40.576,34.559H7.145
			c-2.131,0-3.858-1.721-3.858-3.841V8.498c0.943,1.065,2.319,1.74,3.858,1.74h33.432v6.4h-3.214c-3.196,0-5.786,2.579-5.786,5.76
			c0,3.181,2.59,5.76,5.786,5.76h3.214V34.559z M36.72,8.959H7.145v-2.56H36.72V8.959z M7.145,3.839H36.72v1.28H7.145V3.839z
			 M7.145,1.279H39.29v7.68h-1.284v-5.12c0-0.707-0.576-1.28-1.286-1.28H7.145c-0.711,0-1.286,0.573-1.286,1.28v4.896
			C4.36,8.208,3.287,6.791,3.287,5.119C3.287,2.998,5.013,1.279,7.145,1.279 M41.863,16.638v-6.4c0-0.707-0.576-1.279-1.287-1.279
			v-8.32C40.576,0.286,40.289,0,39.935,0H7.145C4.303,0,2,2.292,2,5.119C2,5.292,2.009,5.462,2.026,5.63
			C2.018,5.674,2,5.714,2,5.759v24.958c0,2.827,2.303,5.12,5.144,5.12h33.432c0.711,0,1.287-0.572,1.287-1.279v-6.4
			c0.71,0,1.286-0.573,1.286-1.279v-8.959C43.149,17.211,42.572,16.638,41.863,16.638"/>
		<path clip-path="url(#SVGID_2_)" fill="#6395C4" d="M18.916,26.688v1.485H17.49v-1.384c-0.976-0.044-1.922-0.305-2.475-0.626
			l0.436-1.703c0.612,0.335,1.471,0.642,2.417,0.642c0.829,0,1.398-0.321,1.398-0.903c0-0.553-0.467-0.903-1.544-1.267
			c-1.557-0.524-2.62-1.254-2.62-2.664c0-1.281,0.902-2.287,2.46-2.59v-1.384h1.427v1.281c0.975,0.043,1.631,0.248,2.111,0.481
			l-0.422,1.644c-0.379-0.159-1.048-0.494-2.097-0.494c-0.946,0-1.252,0.407-1.252,0.815c0,0.48,0.51,0.784,1.747,1.252
			c1.732,0.611,2.431,1.412,2.431,2.723C21.507,25.289,20.59,26.397,18.916,26.688 M18.261,13.937c-4.581,0-8.296,3.714-8.296,8.295
			c0,4.583,3.715,8.296,8.296,8.296s8.296-3.713,8.296-8.296C26.557,17.651,22.842,13.937,18.261,13.937"/>
	</g>
</g>
</svg>
