<?xml version="1.0" encoding="utf-8"?>
<!-- Generator: Adobe Illustrator 15.1.0, SVG Export Plug-In . SVG Version: 6.00 Build 0)  -->
<!DOCTYPE svg PUBLIC "-//W3C//DTD SVG 1.1//EN" "http://www.w3.org/Graphics/SVG/1.1/DTD/svg11.dtd">
<svg version="1.1" id="Слой_1" xmlns="http://www.w3.org/2000/svg" xmlns:xlink="http://www.w3.org/1999/xlink" x="0px" y="0px"
	 width="41.005px" height="53.034px" viewBox="0 0 41.005 53.034" enable-background="new 0 0 41.005 53.034" xml:space="preserve">
<g>
	<defs>
		<rect id="SVGID_1_" width="41.005" height="53.034"/>
	</defs>
	<clipPath id="SVGID_2_">
		<use xlink:href="#SVGID_1_"  overflow="visible"/>
	</clipPath>
	<g clip-path="url(#SVGID_2_)">
		<defs>
			<rect id="SVGID_3_" y="0" width="41.005" height="53.034"/>
		</defs>
		<clipPath id="SVGID_4_">
			<use xlink:href="#SVGID_3_"  overflow="visible"/>
		</clipPath>
		<path clip-path="url(#SVGID_4_)" fill="#6395C4" d="M20.45,31.827c-0.331,0-0.656,0.139-0.888,0.38l-0.843,0.867
			c-0.359,0.377-0.459,0.884-0.266,1.358c0.205,0.5,0.697,0.851,1.199,0.851c0.317,0,0.611-0.132,0.854-0.382
			c0.594-0.612,0.773-0.797,0.833-0.86l0.001,0.001c0.355-0.368,0.459-0.921,0.262-1.411C21.403,32.133,20.963,31.827,20.45,31.827
			 M31.726,18.976c-0.875,0-1.661-0.669-2.39-1.356c-0.146-0.137-0.289-0.276-0.435-0.416c-0.249-0.243-0.499-0.484-0.758-0.713
			l-0.092-0.083c-0.292-0.265-0.691-0.628-1.152-0.628h-6.236c-0.535,0-0.879,0.13-1.191,0.451l-3.125,3.221
			c-0.428,0.44-0.394,0.864-0.336,1.077c0.118,0.428,0.528,0.776,1.068,0.907c0.301,0.072,0.645,0.084,0.976,0.044
			c0.547-0.065,1.105-0.269,1.663-0.605c0.332-0.2,0.667-0.452,0.996-0.747c0.064-0.057,0.129-0.124,0.19-0.189
			c0.186-0.19,0.308-0.306,0.438-0.306h3.891c0.079,0,0.153,0.032,0.21,0.09l6.696,6.899c0.275,0.282,0.451,0.646,0.513,1.051
			l0.048,0.321h2.305v-9.018H31.726z M25.11,20.243h-3.645l-0.106,0.102c-0.684,0.663-2.069,1.775-3.658,1.775
			c-0.228,0-0.452-0.024-0.669-0.07c-0.73-0.157-1.31-0.587-1.55-1.149c-0.311-0.727,0.026-1.448,0.445-1.88l3.146-3.241h-2.967
			c-0.461,0-0.86,0.363-1.153,0.628l-0.091,0.083c-0.26,0.229-0.508,0.47-0.758,0.713c-0.144,0.14-0.288,0.279-0.434,0.416
			c-0.73,0.687-1.516,1.356-2.39,1.356H8v9.018h2.395l0.048-0.319c0.061-0.406,0.238-0.771,0.513-1.053l2.371-2.443
			c0.435-0.449,0.925-0.542,1.258-0.542c0.52,0,1.044,0.232,1.401,0.618c0.238,0.257,0.514,0.7,0.483,1.354l-0.018,0.377
			l0.367,0.017c0.537,0.025,1.036,0.298,1.369,0.749c0.336,0.456,0.458,1.031,0.336,1.579l-0.087,0.382l0.374,0.074
			c0.911,0.18,1.557,1.07,1.471,2.03l-0.033,0.377l0.365,0.031c0.611,0.057,1.135,0.412,1.437,0.979
			c0.3,0.564,0.31,1.235,0.026,1.792l-0.126,0.245l0.64,0.658c0.243,0.25,0.539,0.382,0.855,0.382c0.502,0,0.997-0.352,1.199-0.854
			c0.192-0.475,0.09-0.981-0.272-1.359l-3.434-3.537c-0.089-0.091-0.108-0.184-0.066-0.291c0.08-0.199,0.315-0.313,0.483-0.141
			l4.101,4.225c0.237,0.246,0.555,0.381,0.892,0.381c0.511,0,0.951-0.308,1.151-0.802c0.195-0.491,0.093-1.046-0.265-1.414
			l-4.098-4.224c-0.089-0.091-0.11-0.182-0.066-0.289c0.08-0.2,0.315-0.314,0.483-0.141l4.771,4.914
			c0.242,0.25,0.538,0.383,0.854,0.383c0.504-0.002,0.999-0.354,1.201-0.857c0.191-0.477,0.089-0.984-0.276-1.361l-4.768-4.912
			c-0.088-0.091-0.11-0.183-0.067-0.291c0.08-0.199,0.316-0.314,0.485-0.14l4.189,4.319c0.243,0.248,0.538,0.379,0.854,0.379
			c0.505,0,0.998-0.352,1.202-0.855c0.189-0.477,0.087-0.983-0.277-1.36L25.11,20.243z M19.341,31.568l0.002,0.001
			c0.364-0.375,0.467-0.884,0.275-1.359c-0.202-0.504-0.695-0.855-1.201-0.855c-0.316,0-0.611,0.132-0.854,0.382l-0.019,0.02
			c-0.085,0.087-0.464,0.479-0.841,0.866c-0.544,0.561-0.754,0.777-0.841,0.873l-0.003-0.004c-0.362,0.372-0.462,0.911-0.262,1.408
			c0.199,0.496,0.641,0.806,1.152,0.806c0.336,0,0.652-0.135,0.89-0.38l0.019-0.021c0.074-0.076,0.377-0.389,0.707-0.729
			C19.036,31.884,19.26,31.656,19.341,31.568 M17.894,27.458c-0.202-0.504-0.696-0.856-1.2-0.856c-0.318,0-0.613,0.132-0.856,0.382
			l-2.48,2.554c-0.491,0.505-0.491,1.328,0,1.834c0.238,0.245,0.554,0.38,0.89,0.38s0.653-0.135,0.89-0.38l2.481-2.555
			C17.982,28.444,18.085,27.934,17.894,27.458 M15.526,26.442c0.364-0.375,0.467-0.884,0.276-1.358
			c-0.203-0.505-0.697-0.857-1.201-0.857c-0.317,0-0.613,0.132-0.856,0.381l-2.371,2.443c-0.491,0.507-0.492,1.33-0.001,1.835
			c0.229,0.236,0.554,0.372,0.891,0.372c0.335,0,0.659-0.135,0.887-0.369L15.526,26.442z"/>
		<g opacity="0.2" clip-path="url(#SVGID_4_)">
			<g>
				<defs>
					<rect id="SVGID_5_" y="2" width="39.005" height="51.034"/>
				</defs>
				<clipPath id="SVGID_6_">
					<use xlink:href="#SVGID_5_"  overflow="visible"/>
				</clipPath>
				<path clip-path="url(#SVGID_6_)" d="M19.502,3.236l18.321,6.897v22.143c0,3.955-2.367,7.35-5.93,10.552
					c-3.472,3.122-8.047,6.003-12.392,8.9c-4.344-2.897-8.919-5.778-12.391-8.9c-3.562-3.202-5.929-6.597-5.929-10.552V10.133
					L19.502,3.236z M19.299,2.048L0.388,9.169C0.163,9.252,0.001,9.485,0,9.725v22.551c0,4.431,2.657,8.136,6.334,11.441
					c3.679,3.307,8.415,6.257,12.836,9.217c0.195,0.132,0.47,0.132,0.665,0c4.421-2.96,9.157-5.91,12.836-9.217
					c3.677-3.306,6.334-7.011,6.334-11.441V9.725c-0.001-0.24-0.163-0.473-0.388-0.556L19.706,2.048
					C19.529,1.958,19.346,2.015,19.299,2.048"/>
			</g>
		</g>
		<path clip-path="url(#SVGID_4_)" fill="#FFFFFF" d="M21.502,1.236l18.321,6.897v22.143c0,3.955-2.367,7.35-5.93,10.552
			c-3.472,3.122-8.047,6.003-12.392,8.9c-4.344-2.897-8.919-5.778-12.391-8.9c-3.562-3.202-5.929-6.597-5.929-10.552V8.133
			L21.502,1.236z M21.299,0.048L2.388,7.169C2.163,7.252,2.001,7.485,2,7.725v22.551c0,4.431,2.657,8.136,6.334,11.441
			c3.679,3.307,8.415,6.257,12.836,9.217c0.195,0.132,0.47,0.132,0.665,0c4.421-2.96,9.157-5.91,12.836-9.217
			c3.677-3.306,6.334-7.011,6.334-11.441V7.725c-0.001-0.24-0.163-0.473-0.388-0.556L21.706,0.048
			C21.529-0.042,21.346,0.015,21.299,0.048"/>
	</g>
</g>
</svg>
