<?xml version="1.0" encoding="utf-8"?>
<!-- Generator: Adobe Illustrator 15.1.0, SVG Export Plug-In . SVG Version: 6.00 Build 0)  -->
<!DOCTYPE svg PUBLIC "-//W3C//DTD SVG 1.1//EN" "http://www.w3.org/Graphics/SVG/1.1/DTD/svg11.dtd">
<svg version="1.1" id="Слой_1" xmlns="http://www.w3.org/2000/svg" xmlns:xlink="http://www.w3.org/1999/xlink" x="0px" y="0px"
	 width="47.257px" height="60.008px" viewBox="0 0 47.257 60.008" enable-background="new 0 0 47.257 60.008" xml:space="preserve">
<g enable-background="new    ">
	<g>
		<defs>
			<rect id="SVGID_1_" y="0" width="47.257" height="60.008"/>
		</defs>
		<clipPath id="SVGID_2_">
			<use xlink:href="#SVGID_1_"  overflow="visible"/>
		</clipPath>
		<g clip-path="url(#SVGID_2_)" enable-background="new    ">
			<g>
				<defs>
					<rect id="SVGID_3_" width="47.257" height="60.008"/>
				</defs>
				<clipPath id="SVGID_4_">
					<use xlink:href="#SVGID_3_"  overflow="visible"/>
				</clipPath>
				<g opacity="0.2" clip-path="url(#SVGID_4_)">
					<g>
						<defs>
							<rect id="SVGID_5_" x="5.116" y="3.881" width="36.766" height="49.499"/>
						</defs>
						<clipPath id="SVGID_6_">
							<use xlink:href="#SVGID_5_"  overflow="visible"/>
						</clipPath>
						<path clip-path="url(#SVGID_6_)" d="M26.031,35.966l0.027,0.007h0.001c0.685,0.2,1.468,0.412,2.099,0.412
							c0.225,0,0.422-0.027,0.591-0.078c0.614-0.191,1.104-0.705,1.504-1.183l-0.028,0.038l0.09-0.107l-0.023,0.026l0.464-0.584
							l0.023-0.031c0.002-0.004,0.036-0.046,0.036-0.046c0.505-0.631,1.026-1.284,1.682-1.74c0.666-0.472,1.494-0.747,2.296-1.015
							l0.017-0.005l0.013-0.005c0.994-0.332,1.934-0.646,2.406-1.272c0.459-0.595,0.484-1.519,0.515-2.495l0.002-0.085
							c0.018-0.825,0.035-1.674,0.292-2.453c0.261-0.744,0.754-1.42,1.233-2.073l0.008-0.01l0.071-0.101
							c0.553-0.773,1.125-1.572,1.125-2.347c0-0.812-0.608-1.642-1.196-2.446c-0.483-0.658-0.979-1.335-1.24-2.077
							c-0.258-0.784-0.275-1.634-0.293-2.456c0-0.002-0.002-0.087-0.002-0.087c-0.03-0.978-0.056-1.901-0.513-2.494
							c-0.475-0.628-1.414-0.942-2.408-1.274L34.808,9.98c-0.759-0.248-1.623-0.532-2.313-1.02c-0.65-0.453-1.173-1.104-1.675-1.734
							L30.78,7.177c-0.641-0.822-1.242-1.596-2.031-1.84c-0.176-0.054-0.371-0.081-0.599-0.081c-0.626,0-1.377,0.203-2.091,0.411
							c-0.837,0.242-1.698,0.492-2.565,0.492c-0.871,0-1.73-0.251-2.561-0.492c-0.684-0.199-1.469-0.411-2.096-0.411
							c-0.223,0-0.422,0.027-0.59,0.08c-0.784,0.242-1.388,1.009-2.028,1.821l-0.014,0.018c0,0.001-0.006,0.008-0.006,0.008
							c-0.506,0.646-1.029,1.314-1.698,1.778c-0.667,0.466-1.483,0.74-2.272,1.005L12.187,9.98l-0.027,0.009
							c-0.992,0.333-1.929,0.646-2.401,1.267c-0.464,0.613-0.487,1.569-0.51,2.58c-0.017,0.782-0.034,1.669-0.299,2.456
							c-0.246,0.728-0.729,1.393-1.196,2.035l-0.032,0.045c0,0.001-0.011,0.014-0.011,0.014c-0.585,0.804-1.19,1.635-1.19,2.436
							c0,0.811,0.61,1.643,1.2,2.447c0,0.001,0.024,0.034,0.024,0.034c0.471,0.646,0.958,1.313,1.205,2.05
							c0.256,0.76,0.278,1.591,0.298,2.396l0.001,0.055c0.023,1.012,0.046,1.967,0.51,2.579c0.472,0.622,1.409,0.935,2.401,1.267
							l0.027,0.011c0.764,0.254,1.631,0.542,2.316,1.02c0.67,0.466,1.195,1.136,1.702,1.784c0.001,0.001,0.01,0.013,0.01,0.013
							c0.642,0.815,1.247,1.586,2.032,1.83c0.168,0.052,0.36,0.078,0.584,0.078c0.631,0,1.416-0.212,2.104-0.412l0.015-0.005
							c0.828-0.24,1.682-0.487,2.545-0.487C24.353,35.481,25.206,35.727,26.031,35.966 M27.471,51.074
							c0.564-0.975,2.166-3.733,2.18-3.759c0.112-0.226,0.352-0.37,0.618-0.37c0.076,0,0.148,0.013,0.218,0.035
							c0,0,3.394,1.136,4.497,1.504c-0.477-1.26-4.078-10.742-4.426-11.66c-0.447,0.391-0.896,0.649-1.377,0.801
							c-0.322,0.098-0.676,0.147-1.06,0.147c-0.799,0-1.607-0.229-2.39-0.452l-0.073-0.021c-0.698-0.204-1.488-0.436-2.164-0.436
							c-0.402,0-0.833,0.078-1.332,0.206c0.187,0.492,0.569,1.499,0.569,1.499l0.785,2.07l0.021,0.063l-0.008-0.025
							C23.529,40.676,26.983,49.789,27.471,51.074 M17.707,42.962c0.002,0.004,0.004,0.007,0.006,0.011c0,0,1.608,2.796,2.174,3.781
							c0.435-1.147,2.137-5.63,2.224-5.86c-0.09-0.237-0.908-2.395-0.908-2.395s-0.257-0.68-0.399-1.053
							c-0.63,0.168-1.327,0.314-1.989,0.314c-0.366,0-0.7-0.046-0.996-0.137c-0.972-0.305-1.677-1.021-2.281-1.755
							c-0.376,0.987-2.708,7.124-3.155,8.301c1.104-0.37,4.49-1.505,4.49-1.505c0.002-0.001,0.006-0.001,0.008-0.002
							c0.068-0.021,0.141-0.032,0.215-0.032C17.346,42.631,17.581,42.758,17.707,42.962 M27.318,53.38
							c-0.284,0-0.534-0.171-0.638-0.438c-0.003-0.004-2.816-7.423-3.819-10.069c-0.522,1.374-2.181,5.752-2.181,5.752
							c-0.002,0.003-0.004,0.007-0.005,0.011c-0.107,0.257-0.361,0.43-0.632,0.43H20.02c-0.249,0-0.482-0.127-0.607-0.332
							c-0.003-0.003-0.004-0.006-0.006-0.01c0,0-2.357-4.095-2.631-4.572c-0.524,0.177-5.343,1.799-5.343,1.799l0.012-0.006
							c-0.079,0.03-0.162,0.046-0.245,0.046c-0.189,0-0.366-0.075-0.499-0.214c-0.128-0.137-0.198-0.307-0.198-0.482
							c0-0.085,0.015-0.165,0.046-0.242l-0.004,0.008c0,0,3.822-10.064,3.972-10.462c-0.241-0.282-0.519-0.575-0.829-0.792
							c-0.504-0.351-1.189-0.58-1.913-0.823l-0.043-0.015c-1.163-0.387-2.365-0.787-3.1-1.757c-0.731-0.96-0.761-2.172-0.791-3.343
							v-0.029c-0.015-0.723-0.031-1.469-0.229-2.055c-0.178-0.529-0.575-1.077-0.997-1.656l-0.039-0.053
							c0-0.001-0.006-0.008-0.006-0.008c-0.715-0.982-1.453-1.997-1.453-3.245s0.738-2.262,1.453-3.244l0.008-0.009
							c0-0.001,0.024-0.034,0.024-0.034c0.427-0.587,0.831-1.142,1.01-1.678c0.198-0.583,0.214-1.33,0.229-2.052v-0.032
							c0.03-1.173,0.06-2.385,0.792-3.34c0.733-0.971,1.931-1.371,3.092-1.759l0.007-0.003c0.705-0.231,1.432-0.471,1.955-0.838
							c0.508-0.354,0.963-0.938,1.403-1.502c0.001-0.002,0.013-0.016,0.013-0.016c0.745-0.944,1.515-1.919,2.715-2.296
							c0.298-0.092,0.633-0.138,0.995-0.138c0.811,0,1.691,0.222,2.52,0.463l0.011,0.004c0.733,0.211,1.491,0.43,2.151,0.43
							c0.661,0,1.416-0.219,2.148-0.429l0.015-0.005c0.824-0.24,1.701-0.462,2.52-0.462c0.361,0,0.698,0.046,0.999,0.136
							c1.219,0.384,2.019,1.409,2.724,2.313c0.505,0.648,0.929,1.169,1.41,1.501c0.515,0.368,1.24,0.608,1.941,0.839
							c0.004,0,0.024,0.008,0.024,0.008c1.158,0.387,2.358,0.787,3.08,1.757c0.729,0.94,0.763,2.13,0.795,3.283l0.002,0.086
							c0,0.002,0.001,0.023,0.001,0.023c0.016,0.716,0.032,1.455,0.221,2.031c0.181,0.519,0.571,1.062,0.984,1.635l0.056,0.078
							c0.687,0.93,1.468,1.99,1.468,3.25c0,1.26-0.781,2.32-1.471,3.254c0,0.001-0.065,0.092-0.065,0.092
							c-0.408,0.567-0.792,1.101-0.973,1.619c-0.188,0.574-0.204,1.316-0.22,2.034l-0.001,0.02c0,0.002-0.002,0.089-0.002,0.089
							c-0.032,1.15-0.065,2.337-0.798,3.283c-0.726,0.973-1.934,1.371-3.102,1.755c-0.738,0.25-1.438,0.484-1.938,0.837
							c-0.485,0.339-0.909,0.859-1.413,1.504c0,0-0.16,0.203-0.284,0.36c0.146,0.385,5.203,13.705,5.203,13.705l-0.006-0.015
							c0.033,0.079,0.051,0.166,0.051,0.251c0,0.178-0.074,0.348-0.206,0.48c-0.125,0.135-0.305,0.213-0.497,0.213
							c-0.079,0-0.158-0.013-0.229-0.04c0,0-4.82-1.62-5.345-1.796c-0.272,0.476-2.62,4.57-2.62,4.57
							c-0.007,0.01-0.013,0.02-0.02,0.029c-0.137,0.195-0.364,0.313-0.604,0.313H27.318"/>
					</g>
				</g>
				<path clip-path="url(#SVGID_4_)" fill="#FFFFFF" d="M28.031,33.966l0.027,0.007h0.001c0.685,0.2,1.468,0.412,2.099,0.412
					c0.225,0,0.422-0.027,0.591-0.078c0.614-0.191,1.104-0.705,1.504-1.183l-0.028,0.038l0.09-0.107l-0.023,0.026l0.464-0.584
					l0.023-0.031c0.002-0.004,0.036-0.046,0.036-0.046c0.505-0.631,1.026-1.284,1.682-1.74c0.666-0.472,1.494-0.747,2.296-1.015
					l0.017-0.005l0.013-0.005c0.994-0.332,1.934-0.646,2.406-1.272c0.459-0.595,0.484-1.519,0.515-2.495l0.002-0.085
					c0.018-0.825,0.035-1.674,0.292-2.453c0.261-0.744,0.754-1.42,1.233-2.073l0.008-0.01l0.071-0.101
					c0.553-0.773,1.125-1.572,1.125-2.347c0-0.812-0.608-1.642-1.196-2.446c-0.483-0.658-0.979-1.335-1.24-2.077
					c-0.258-0.784-0.275-1.634-0.293-2.456c0-0.002-0.002-0.087-0.002-0.087c-0.03-0.978-0.056-1.901-0.513-2.494
					c-0.475-0.628-1.414-0.942-2.408-1.274L36.808,7.98c-0.759-0.248-1.623-0.532-2.313-1.02c-0.65-0.453-1.173-1.104-1.675-1.734
					L32.78,5.177c-0.641-0.822-1.242-1.596-2.031-1.84c-0.176-0.054-0.371-0.081-0.599-0.081c-0.626,0-1.377,0.203-2.091,0.411
					c-0.837,0.242-1.698,0.492-2.565,0.492c-0.871,0-1.729-0.251-2.561-0.492c-0.684-0.199-1.469-0.411-2.096-0.411
					c-0.223,0-0.422,0.027-0.59,0.08c-0.784,0.242-1.388,1.009-2.028,1.821l-0.014,0.018c0,0.001-0.006,0.008-0.006,0.008
					c-0.506,0.646-1.029,1.314-1.698,1.778c-0.667,0.466-1.483,0.74-2.272,1.005L14.187,7.98l-0.027,0.009
					c-0.992,0.333-1.929,0.646-2.401,1.267c-0.464,0.613-0.487,1.569-0.51,2.58c-0.017,0.782-0.034,1.669-0.299,2.456
					c-0.246,0.728-0.729,1.393-1.196,2.035l-0.032,0.045c0,0.001-0.011,0.014-0.011,0.014c-0.585,0.804-1.19,1.635-1.19,2.436
					c0,0.811,0.61,1.643,1.2,2.447c0,0.001,0.024,0.034,0.024,0.034c0.471,0.646,0.958,1.313,1.205,2.05
					c0.256,0.76,0.278,1.591,0.298,2.396l0.001,0.055c0.023,1.012,0.046,1.967,0.51,2.579c0.472,0.622,1.409,0.935,2.401,1.267
					l0.027,0.01c0.764,0.254,1.631,0.542,2.316,1.02c0.67,0.466,1.195,1.136,1.702,1.784c0.001,0.001,0.01,0.013,0.01,0.013
					c0.642,0.815,1.247,1.586,2.032,1.83c0.168,0.052,0.36,0.078,0.584,0.078c0.631,0,1.416-0.212,2.104-0.412l0.015-0.005
					c0.828-0.24,1.683-0.487,2.545-0.487C26.353,33.481,27.206,33.727,28.031,33.966 M29.471,49.074
					c0.564-0.975,2.166-3.733,2.18-3.759c0.112-0.226,0.352-0.37,0.618-0.37c0.076,0,0.148,0.013,0.218,0.035
					c0,0,3.394,1.136,4.497,1.504c-0.477-1.26-4.078-10.742-4.426-11.66c-0.447,0.391-0.896,0.649-1.377,0.801
					c-0.322,0.098-0.676,0.147-1.06,0.147c-0.799,0-1.607-0.229-2.39-0.452l-0.073-0.021c-0.698-0.204-1.488-0.436-2.164-0.436
					c-0.402,0-0.833,0.078-1.332,0.206c0.188,0.492,0.569,1.499,0.569,1.499l0.785,2.07l0.021,0.063l-0.008-0.025
					C25.529,38.676,28.983,47.789,29.471,49.074 M19.707,40.962c0.002,0.004,0.004,0.007,0.006,0.011c0,0,1.608,2.796,2.174,3.781
					c0.435-1.147,2.137-5.63,2.224-5.86c-0.09-0.237-0.908-2.395-0.908-2.395s-0.257-0.68-0.399-1.053
					c-0.63,0.168-1.327,0.314-1.989,0.314c-0.366,0-0.7-0.046-0.996-0.137c-0.972-0.305-1.677-1.021-2.281-1.755
					c-0.376,0.987-2.708,7.124-3.155,8.301c1.104-0.37,4.49-1.505,4.49-1.505c0.002-0.001,0.006-0.001,0.008-0.002
					c0.068-0.021,0.141-0.032,0.215-0.032C19.346,40.631,19.581,40.758,19.707,40.962 M29.318,51.38
					c-0.284,0-0.534-0.171-0.638-0.438c-0.003-0.004-2.816-7.423-3.819-10.069c-0.521,1.374-2.181,5.752-2.181,5.752
					c-0.002,0.003-0.004,0.007-0.005,0.011c-0.107,0.257-0.361,0.43-0.632,0.43H22.02c-0.249,0-0.482-0.127-0.607-0.332
					c-0.003-0.003-0.004-0.006-0.006-0.01c0,0-2.357-4.095-2.631-4.572c-0.524,0.177-5.343,1.799-5.343,1.799l0.012-0.006
					c-0.079,0.03-0.162,0.046-0.245,0.046c-0.189,0-0.366-0.075-0.499-0.214c-0.128-0.137-0.198-0.307-0.198-0.482
					c0-0.085,0.015-0.165,0.046-0.242l-0.004,0.008c0,0,3.822-10.064,3.972-10.462c-0.241-0.282-0.519-0.575-0.829-0.792
					c-0.504-0.351-1.189-0.58-1.913-0.823l-0.043-0.015c-1.163-0.387-2.365-0.787-3.1-1.757c-0.731-0.96-0.761-2.172-0.791-3.343
					v-0.029c-0.015-0.723-0.031-1.469-0.229-2.055c-0.178-0.529-0.575-1.077-0.997-1.656l-0.039-0.053
					c0-0.001-0.006-0.008-0.006-0.008c-0.715-0.982-1.453-1.997-1.453-3.245s0.738-2.262,1.453-3.244l0.008-0.009
					c0-0.001,0.024-0.034,0.024-0.034c0.427-0.587,0.831-1.142,1.01-1.678c0.198-0.583,0.214-1.33,0.229-2.052v-0.032
					c0.03-1.173,0.06-2.385,0.792-3.34c0.733-0.971,1.931-1.371,3.092-1.759l0.007-0.003c0.705-0.231,1.432-0.471,1.955-0.838
					c0.508-0.354,0.963-0.938,1.403-1.502c0.001-0.002,0.013-0.016,0.013-0.016c0.745-0.944,1.515-1.919,2.715-2.296
					c0.298-0.092,0.633-0.138,0.995-0.138c0.811,0,1.691,0.222,2.52,0.463l0.012,0.004c0.732,0.211,1.49,0.43,2.15,0.43
					c0.661,0,1.416-0.219,2.148-0.429l0.015-0.005c0.824-0.24,1.701-0.462,2.52-0.462c0.361,0,0.698,0.046,0.999,0.136
					c1.219,0.384,2.019,1.409,2.724,2.313c0.505,0.648,0.929,1.169,1.41,1.501c0.515,0.368,1.24,0.608,1.941,0.839
					c0.004,0,0.024,0.008,0.024,0.008c1.158,0.387,2.358,0.787,3.08,1.757c0.729,0.94,0.763,2.13,0.795,3.283l0.002,0.086
					c0,0.002,0.001,0.023,0.001,0.023c0.016,0.716,0.032,1.455,0.221,2.031c0.181,0.519,0.571,1.062,0.984,1.635l0.056,0.078
					c0.687,0.93,1.468,1.99,1.468,3.25c0,1.26-0.781,2.32-1.471,3.254c0,0.001-0.065,0.092-0.065,0.092
					c-0.408,0.567-0.792,1.101-0.973,1.619c-0.188,0.574-0.204,1.316-0.22,2.034l-0.001,0.02c0,0.002-0.002,0.089-0.002,0.089
					c-0.032,1.15-0.065,2.337-0.798,3.283c-0.726,0.973-1.934,1.371-3.102,1.755c-0.738,0.25-1.438,0.484-1.938,0.837
					c-0.485,0.339-0.909,0.859-1.413,1.504c0,0-0.16,0.203-0.284,0.36c0.146,0.385,5.203,13.705,5.203,13.705l-0.006-0.015
					c0.033,0.079,0.051,0.166,0.051,0.251c0,0.178-0.074,0.348-0.206,0.48c-0.125,0.135-0.305,0.213-0.497,0.213
					c-0.079,0-0.158-0.013-0.229-0.04c0,0-4.82-1.62-5.345-1.796c-0.272,0.476-2.62,4.57-2.62,4.57
					c-0.007,0.01-0.013,0.02-0.02,0.029c-0.137,0.195-0.364,0.313-0.604,0.313H29.318"/>
				<g clip-path="url(#SVGID_4_)">
					<defs>
						<path id="SVGID_7_" d="M29.471,49.074c-0.064-0.169-0.18-0.475-0.332-0.876c-0.265,0.457-0.597,1.029-0.906,1.563
							c0.274,0.725,0.447,1.18,0.447,1.181c0.059,0.149,0.161,0.268,0.29,0.344c0.674-1.175,1.465-2.554,1.617-2.818
							c0.1,0.034,0.36,0.122,0.715,0.241c0.245-0.428,0.489-0.854,0.7-1.222c-0.592-0.197-1.099-0.367-1.349-0.451
							C30.21,47.799,29.73,48.625,29.471,49.074 M34.457,47.097c0.559,0.188,1.167,0.393,1.715,0.576
							c-0.184-0.486-0.399-1.053-0.635-1.672c-0.567-0.19-1.185-0.396-1.713-0.574C34.059,46.047,34.275,46.617,34.457,47.097
							 M16.88,42.664c-0.002,0.001-0.006,0.001-0.008,0.002c0,0-2.458,0.824-3.868,1.297c0.063,0.018,0.128,0.028,0.195,0.028
							c0.083,0,0.166-0.016,0.245-0.044l-0.012,0.004c0,0,2.257-0.76,3.85-1.295c-0.06-0.017-0.123-0.024-0.186-0.024
							C17.021,42.631,16.949,42.642,16.88,42.664 M21.886,44.754c-0.175-0.305-0.451-0.784-0.747-1.3
							c-0.216,0.566-0.44,1.156-0.642,1.689c0.472,0.82,0.866,1.504,0.906,1.574c0.515-1.358,1.166-3.074,1.458-3.845
							c0.166,0.435,0.379,0.999,0.622,1.637c0.241-0.64,0.509-1.342,0.75-1.979c-0.418-1.104-0.703-1.855-0.703-1.855l0.008,0.025
							l-0.021-0.063l-0.033-0.09C22.924,42.019,22.158,44.039,21.886,44.754 M22.834,35.525c0.145,0.385,0.369,0.975,0.369,0.975
							s0.055,0.146,0.139,0.367c0.051-0.002,0.103-0.003,0.153-0.003c0.448,0,0.946,0.102,1.435,0.229l-0.198-0.525
							c0,0-0.203-0.534-0.386-1.015c-0.282-0.045-0.566-0.072-0.851-0.072C23.274,35.481,23.053,35.498,22.834,35.525 M12.545,43.06
							l0.004-0.008c-0.031,0.076-0.047,0.157-0.047,0.242c0,0.116,0.03,0.229,0.087,0.332c0.722-1.902,2.613-6.876,2.949-7.757
							c0.269,0.327,0.559,0.651,0.883,0.937c0.194-0.511,0.379-0.996,0.541-1.424c-0.252-0.276-0.497-0.587-0.748-0.905
							c0,0-0.009-0.012-0.01-0.014c-0.088-0.112-0.177-0.227-0.267-0.339C14.833,37.036,12.545,43.06,12.545,43.06 M37.629,29.375
							c-0.07,0.388-0.189,0.732-0.402,1.009c-0.473,0.624-1.41,0.939-2.404,1.271l-0.015,0.005l-0.016,0.004
							c-0.709,0.237-1.439,0.479-2.059,0.859l-0.442,0.558l0.023-0.026l-0.09,0.107l0.028-0.038
							c-0.349,0.418-0.768,0.862-1.279,1.097c-0.053,0.066-0.105,0.133-0.158,0.199c0,0-0.035,0.042-0.037,0.046l-0.023,0.031
							l-0.464,0.584l0.024-0.026l-0.091,0.107l0.028-0.038c-0.177,0.212-0.371,0.43-0.587,0.625
							c0.152,0.015,0.304,0.022,0.455,0.022c0.383,0,0.737-0.05,1.059-0.147c0.25-0.078,0.491-0.187,0.729-0.326
							c0.5-0.64,0.922-1.155,1.405-1.493c0.113-0.081,0.238-0.156,0.372-0.226c0.107-0.136,0.214-0.271,0.214-0.271
							c0.504-0.645,0.928-1.165,1.412-1.504c0.5-0.353,1.2-0.587,1.94-0.836c0.528-0.174,1.064-0.351,1.56-0.582
							c0.226-0.594,0.291-1.24,0.319-1.889C38.782,28.885,38.243,29.146,37.629,29.375 M41.349,21.167l-0.07,0.101l-0.009,0.01
							c-0.479,0.653-0.973,1.329-1.233,2.073c-0.174,0.529-0.239,1.09-0.268,1.653c0.172-0.271,0.37-0.549,0.576-0.835
							c0,0,0.066-0.091,0.066-0.092c0.688-0.934,1.471-1.994,1.471-3.254c0-0.132-0.009-0.262-0.024-0.39
							C41.698,20.678,41.522,20.923,41.349,21.167 M8.601,15.535c0,0-0.024,0.033-0.024,0.035L8.57,15.578
							c-0.716,0.982-1.454,1.996-1.454,3.244c0,0.129,0.008,0.255,0.023,0.38c0.177-0.274,0.375-0.546,0.571-0.815
							c0,0,0.011-0.014,0.011-0.015l0.032-0.045c0.467-0.641,0.95-1.307,1.197-2.036c0.176-0.525,0.243-1.096,0.272-1.65
							C9.041,14.931,8.824,15.229,8.601,15.535 M17.817,4.02c-0.269,0.085-0.517,0.2-0.747,0.338
							c-0.434,0.555-0.883,1.127-1.383,1.476c-0.119,0.084-0.249,0.161-0.386,0.232c-0.067,0.083-0.132,0.167-0.198,0.25
							c0,0-0.012,0.013-0.014,0.016c-0.439,0.564-0.894,1.148-1.403,1.502c-0.523,0.366-1.25,0.607-1.954,0.838l-0.008,0.003
							c-0.522,0.174-1.052,0.352-1.544,0.582c-0.222,0.59-0.29,1.232-0.319,1.879c0.35-0.382,0.888-0.64,1.498-0.868
							c0.071-0.389,0.19-0.735,0.399-1.011c0.472-0.621,1.41-0.934,2.402-1.266l0.027-0.01l0.042-0.014
							c0.69-0.232,1.401-0.471,2.014-0.838c0.564-0.717,1.102-1.394,1.764-1.7c0.065-0.081,0.129-0.163,0.193-0.244
							c0,0,0.005-0.008,0.005-0.009l0.015-0.017c0.362-0.461,0.713-0.907,1.093-1.251c-0.169-0.017-0.336-0.026-0.5-0.026
							C18.45,3.881,18.115,3.927,17.817,4.02"/>
					</defs>
					<clipPath id="SVGID_8_">
						<use xlink:href="#SVGID_7_"  overflow="visible"/>
					</clipPath>
					<g clip-path="url(#SVGID_8_)">
						<g>
							<defs>
								<rect id="SVGID_9_" width="47.257" height="60.008"/>
							</defs>
							<clipPath id="SVGID_10_">
								<use xlink:href="#SVGID_9_"  overflow="visible"/>
							</clipPath>
							<rect y="0" clip-path="url(#SVGID_10_)" fill="#FFFFFF" width="47.257" height="60.008"/>
						</g>
					</g>
				</g>
				<g clip-path="url(#SVGID_4_)">
					<defs>
						<path id="SVGID_11_" d="M29.471,49.074c-0.063-0.169-0.181-0.475-0.333-0.876c-0.264,0.457-0.596,1.029-0.906,1.563
							c0.275,0.725,0.447,1.18,0.448,1.181c0.059,0.149,0.161,0.269,0.29,0.344c0.674-1.175,1.465-2.554,1.617-2.818
							c0.1,0.034,0.36,0.122,0.714,0.241c0.246-0.428,0.491-0.854,0.701-1.222c-0.592-0.197-1.099-0.367-1.35-0.451
							C30.209,47.8,29.731,48.625,29.471,49.074 M34.457,47.097c0.559,0.188,1.167,0.393,1.715,0.576
							c-0.185-0.485-0.399-1.053-0.635-1.673c-0.567-0.189-1.185-0.396-1.713-0.573C34.059,46.047,34.275,46.617,34.457,47.097
							 M16.88,42.664c-0.002,0.001-0.006,0.001-0.008,0.002c0,0-2.459,0.824-3.868,1.297c0.062,0.018,0.128,0.028,0.195,0.028
							c0.083,0,0.166-0.016,0.245-0.044l-0.012,0.004c0,0,2.257-0.76,3.85-1.296c-0.061-0.016-0.123-0.023-0.186-0.023
							C17.021,42.631,16.949,42.642,16.88,42.664 M21.886,44.754c-0.175-0.305-0.451-0.784-0.748-1.301
							c-0.215,0.566-0.439,1.157-0.641,1.691c0.472,0.819,0.865,1.503,0.906,1.573c0.515-1.358,1.165-3.074,1.458-3.845
							c0.166,0.435,0.379,0.999,0.622,1.637c0.241-0.64,0.508-1.342,0.75-1.979c-0.418-1.104-0.703-1.855-0.703-1.855l0.008,0.025
							l-0.021-0.063l-0.033-0.09C22.924,42.02,22.158,44.038,21.886,44.754 M22.834,35.525c0.145,0.386,0.369,0.975,0.369,0.975
							s0.056,0.146,0.139,0.367c0.052-0.002,0.103-0.003,0.153-0.003c0.448,0,0.946,0.102,1.435,0.229l-0.198-0.525
							c0,0-0.202-0.533-0.386-1.015c-0.282-0.045-0.566-0.072-0.851-0.072C23.274,35.481,23.053,35.498,22.834,35.525 M12.545,43.06
							l0.004-0.008c-0.031,0.076-0.047,0.157-0.047,0.242c0,0.116,0.031,0.229,0.087,0.332c0.723-1.901,2.613-6.876,2.949-7.757
							c0.269,0.328,0.558,0.651,0.883,0.937c0.194-0.51,0.378-0.996,0.541-1.424c-0.252-0.276-0.497-0.587-0.748-0.905
							c0,0-0.009-0.012-0.01-0.014c-0.088-0.112-0.177-0.227-0.267-0.338C14.833,37.036,12.545,43.06,12.545,43.06 M37.629,29.376
							c-0.07,0.387-0.189,0.731-0.402,1.008c-0.473,0.624-1.41,0.939-2.404,1.271l-0.015,0.005l-0.016,0.004
							c-0.709,0.237-1.439,0.479-2.059,0.859l-0.442,0.558l0.023-0.026l-0.09,0.107l0.028-0.038
							c-0.349,0.418-0.768,0.862-1.279,1.097c-0.053,0.066-0.105,0.133-0.158,0.199c0,0-0.035,0.042-0.037,0.046l-0.023,0.031
							l-0.464,0.584l0.024-0.026l-0.091,0.107l0.028-0.038c-0.177,0.211-0.371,0.43-0.587,0.624
							c0.152,0.016,0.304,0.023,0.455,0.023c0.383,0,0.737-0.05,1.059-0.147c0.25-0.078,0.491-0.187,0.729-0.326
							c0.5-0.639,0.922-1.155,1.405-1.493c0.113-0.081,0.238-0.155,0.372-0.225c0.107-0.137,0.214-0.271,0.214-0.271
							c0.504-0.645,0.928-1.165,1.412-1.504c0.5-0.353,1.2-0.587,1.94-0.836c0.527-0.174,1.064-0.35,1.56-0.582
							c0.227-0.594,0.29-1.24,0.319-1.889C38.782,28.885,38.243,29.146,37.629,29.376 M41.349,21.167l-0.07,0.101l-0.009,0.01
							c-0.479,0.653-0.973,1.329-1.233,2.073c-0.174,0.529-0.239,1.09-0.268,1.653c0.171-0.271,0.37-0.55,0.576-0.835
							c0,0,0.066-0.091,0.066-0.092c0.688-0.934,1.471-1.994,1.471-3.254c0-0.132-0.01-0.262-0.025-0.39
							C41.698,20.678,41.522,20.924,41.349,21.167 M8.601,15.535c0,0-0.024,0.033-0.024,0.035L8.57,15.578
							c-0.716,0.982-1.454,1.996-1.454,3.244c0,0.129,0.008,0.256,0.023,0.379c0.177-0.273,0.375-0.545,0.571-0.814
							c0,0,0.011-0.014,0.011-0.015l0.032-0.045c0.467-0.641,0.95-1.307,1.197-2.036c0.177-0.525,0.243-1.096,0.272-1.65
							C9.04,14.931,8.824,15.229,8.601,15.535 M17.817,4.02c-0.269,0.085-0.517,0.2-0.748,0.337
							c-0.432,0.556-0.882,1.128-1.382,1.477c-0.119,0.084-0.248,0.161-0.386,0.233c-0.067,0.082-0.132,0.166-0.198,0.249
							c0,0-0.012,0.013-0.014,0.016c-0.439,0.564-0.894,1.148-1.403,1.502c-0.523,0.366-1.25,0.607-1.954,0.838l-0.008,0.003
							c-0.522,0.174-1.053,0.352-1.544,0.582c-0.222,0.59-0.29,1.232-0.319,1.878c0.349-0.381,0.888-0.64,1.499-0.867
							c0.07-0.389,0.189-0.735,0.398-1.011c0.472-0.621,1.41-0.934,2.402-1.266l0.027-0.01l0.042-0.014
							c0.69-0.232,1.401-0.471,2.014-0.838c0.564-0.717,1.103-1.394,1.764-1.7c0.065-0.081,0.129-0.163,0.193-0.244
							c0,0,0.005-0.008,0.005-0.009l0.015-0.017c0.362-0.461,0.713-0.907,1.093-1.252c-0.169-0.016-0.336-0.025-0.5-0.025
							C18.45,3.881,18.115,3.927,17.817,4.02"/>
					</defs>
					<clipPath id="SVGID_12_">
						<use xlink:href="#SVGID_11_"  overflow="visible"/>
					</clipPath>
					<g clip-path="url(#SVGID_12_)">
						<g>
							<defs>
								<rect id="SVGID_13_" width="47.257" height="60.008"/>
							</defs>
							<clipPath id="SVGID_14_">
								<use xlink:href="#SVGID_13_"  overflow="visible"/>
							</clipPath>
						</g>
					</g>
				</g>
				<g clip-path="url(#SVGID_4_)">
					<defs>
						<path id="SVGID_15_" d="M29.471,49.074c-0.064-0.169-0.18-0.475-0.332-0.876c-0.265,0.457-0.597,1.029-0.906,1.563
							c0.274,0.725,0.447,1.18,0.447,1.181c0.059,0.149,0.161,0.268,0.29,0.344c0.674-1.175,1.465-2.554,1.617-2.818
							c0.1,0.034,0.36,0.122,0.715,0.241c0.245-0.428,0.489-0.854,0.7-1.222c-0.592-0.197-1.099-0.367-1.349-0.451
							C30.21,47.799,29.73,48.625,29.471,49.074 M34.457,47.097c0.559,0.188,1.167,0.393,1.715,0.576
							c-0.184-0.486-0.399-1.053-0.635-1.672c-0.567-0.19-1.185-0.396-1.713-0.574C34.059,46.047,34.275,46.617,34.457,47.097
							 M16.88,42.664c-0.002,0.001-0.006,0.001-0.008,0.002c0,0-2.458,0.824-3.868,1.297c0.063,0.018,0.128,0.028,0.195,0.028
							c0.083,0,0.166-0.016,0.245-0.044l-0.012,0.004c0,0,2.257-0.76,3.85-1.295c-0.06-0.017-0.123-0.024-0.186-0.024
							C17.021,42.631,16.949,42.642,16.88,42.664 M21.886,44.754c-0.175-0.305-0.451-0.784-0.747-1.3
							c-0.216,0.566-0.44,1.156-0.642,1.689c0.472,0.82,0.866,1.504,0.906,1.574c0.515-1.358,1.166-3.074,1.458-3.845
							c0.166,0.435,0.379,0.999,0.622,1.637c0.241-0.64,0.509-1.342,0.75-1.979c-0.418-1.104-0.703-1.855-0.703-1.855l0.008,0.025
							l-0.021-0.063l-0.033-0.09C22.924,42.019,22.158,44.039,21.886,44.754 M22.834,35.525c0.145,0.385,0.369,0.975,0.369,0.975
							s0.055,0.146,0.139,0.367c0.051-0.002,0.103-0.003,0.153-0.003c0.448,0,0.946,0.102,1.435,0.229l-0.198-0.525
							c0,0-0.203-0.534-0.386-1.015c-0.282-0.045-0.566-0.072-0.851-0.072C23.274,35.481,23.053,35.498,22.834,35.525 M12.545,43.06
							l0.004-0.008c-0.031,0.076-0.047,0.157-0.047,0.242c0,0.116,0.03,0.229,0.087,0.332c0.722-1.902,2.613-6.876,2.949-7.757
							c0.269,0.327,0.559,0.651,0.883,0.937c0.194-0.511,0.379-0.996,0.541-1.424c-0.252-0.276-0.497-0.587-0.748-0.905
							c0,0-0.009-0.012-0.01-0.014c-0.088-0.112-0.177-0.227-0.267-0.339C14.833,37.036,12.545,43.06,12.545,43.06 M37.629,29.375
							c-0.07,0.388-0.189,0.732-0.402,1.009c-0.473,0.624-1.41,0.939-2.404,1.271l-0.015,0.005l-0.016,0.004
							c-0.709,0.237-1.439,0.479-2.059,0.859l-0.442,0.558l0.023-0.026l-0.09,0.107l0.028-0.038
							c-0.349,0.418-0.768,0.862-1.279,1.097c-0.053,0.066-0.105,0.133-0.158,0.199c0,0-0.035,0.042-0.037,0.046l-0.023,0.031
							l-0.464,0.584l0.024-0.026l-0.091,0.107l0.028-0.038c-0.177,0.212-0.371,0.43-0.587,0.625
							c0.152,0.015,0.304,0.022,0.455,0.022c0.383,0,0.737-0.05,1.059-0.147c0.25-0.078,0.491-0.187,0.729-0.326
							c0.5-0.64,0.922-1.155,1.405-1.493c0.113-0.081,0.238-0.156,0.372-0.226c0.107-0.136,0.214-0.271,0.214-0.271
							c0.504-0.645,0.928-1.165,1.412-1.504c0.5-0.353,1.2-0.587,1.94-0.836c0.528-0.174,1.064-0.351,1.56-0.582
							c0.226-0.594,0.291-1.24,0.319-1.889C38.782,28.885,38.243,29.146,37.629,29.375 M41.349,21.167l-0.07,0.101l-0.009,0.01
							c-0.479,0.653-0.973,1.329-1.233,2.073c-0.174,0.529-0.239,1.09-0.268,1.653c0.172-0.271,0.37-0.549,0.576-0.835
							c0,0,0.066-0.091,0.066-0.092c0.688-0.934,1.471-1.994,1.471-3.254c0-0.132-0.009-0.262-0.024-0.39
							C41.698,20.678,41.522,20.923,41.349,21.167 M8.601,15.535c0,0-0.024,0.033-0.024,0.035L8.57,15.578
							c-0.716,0.982-1.454,1.996-1.454,3.244c0,0.129,0.008,0.255,0.023,0.38c0.177-0.274,0.375-0.546,0.571-0.815
							c0,0,0.011-0.014,0.011-0.015l0.032-0.045c0.467-0.641,0.95-1.307,1.197-2.036c0.176-0.525,0.243-1.096,0.272-1.65
							C9.041,14.931,8.824,15.229,8.601,15.535 M17.817,4.02c-0.269,0.085-0.517,0.2-0.747,0.338
							c-0.434,0.555-0.883,1.127-1.383,1.476c-0.119,0.084-0.249,0.161-0.386,0.232c-0.067,0.083-0.132,0.167-0.198,0.25
							c0,0-0.012,0.013-0.014,0.016c-0.439,0.564-0.894,1.148-1.403,1.502c-0.523,0.366-1.25,0.607-1.954,0.838l-0.008,0.003
							c-0.522,0.174-1.052,0.352-1.544,0.582c-0.222,0.59-0.29,1.232-0.319,1.879c0.35-0.382,0.888-0.64,1.498-0.868
							c0.071-0.389,0.19-0.735,0.399-1.011c0.472-0.621,1.41-0.934,2.402-1.266l0.027-0.01l0.042-0.014
							c0.69-0.232,1.401-0.471,2.014-0.838c0.564-0.717,1.102-1.394,1.764-1.7c0.065-0.081,0.129-0.163,0.193-0.244
							c0,0,0.005-0.008,0.005-0.009l0.015-0.017c0.362-0.461,0.713-0.907,1.093-1.251c-0.169-0.017-0.336-0.026-0.5-0.026
							C18.45,3.881,18.115,3.927,17.817,4.02"/>
					</defs>
					<clipPath id="SVGID_16_">
						<use xlink:href="#SVGID_15_"  overflow="visible"/>
					</clipPath>
					<g clip-path="url(#SVGID_16_)">
						<g>
							<defs>
								<rect id="SVGID_17_" width="47.257" height="60.008"/>
							</defs>
							<clipPath id="SVGID_18_">
								<use xlink:href="#SVGID_17_"  overflow="visible"/>
							</clipPath>
						</g>
					</g>
					<g opacity="0.2" clip-path="url(#SVGID_16_)">
						<g>
							<defs>
								<rect id="SVGID_19_" x="5.116" y="3.881" width="36.766" height="49.499"/>
							</defs>
							<clipPath id="SVGID_20_">
								<use xlink:href="#SVGID_19_"  overflow="visible"/>
							</clipPath>
						</g>
					</g>
				</g>
				<g opacity="0.2" clip-path="url(#SVGID_4_)">
					<g>
						<defs>
							<rect id="SVGID_21_" x="5.116" y="3.881" width="36.766" height="49.499"/>
						</defs>
						<clipPath id="SVGID_22_">
							<use xlink:href="#SVGID_21_"  overflow="visible"/>
						</clipPath>
					</g>
				</g>
				<path clip-path="url(#SVGID_4_)" fill="#6395C4" d="M21.163,26.757h-3.91l0.003-7.384h2.395c0.347,0,0.691,0.287,0.763,0.637
					l1.254,6.114C21.74,26.474,21.515,26.762,21.163,26.757 M33.87,21.341c0,0,0.903,1.529-0.684,2.754c0,0,0.737,2.107-2.208,2.752
					c-0.868,0.19-1.958,0.183-2.986,0.098c-2.571,0.055-5.133-0.287-5.133-0.287l-1.656-7.388c0.504-0.313,0.741-0.669,0.853-0.901
					c0.025-0.073,0.053-0.154,0.085-0.238c0.141-0.347,0.363-0.769,0.718-1.152c1.656-1.306,3.387-6.204,3.387-6.204
					S25.974,9,26.784,9c0.81,0,2.735,0.555,1.577,4.148c-1.155,3.594,0,3.041,0,3.041c0.265-0.065,0.513-0.117,0.746-0.158
					c0,0,3.336-0.768,4.565,0.387c0.985,0.923,0.223,2.144,0.223,2.144S35.282,19.829,33.87,21.341"/>
			</g>
		</g>
	</g>
</g>
</svg>
