<?xml version="1.0" encoding="utf-8"?>
<!-- Generator: Adobe Illustrator 15.1.0, SVG Export Plug-In . SVG Version: 6.00 Build 0)  -->
<!DOCTYPE svg PUBLIC "-//W3C//DTD SVG 1.1//EN" "http://www.w3.org/Graphics/SVG/1.1/DTD/svg11.dtd">
<svg version="1.1" id="Слой_1" xmlns="http://www.w3.org/2000/svg" xmlns:xlink="http://www.w3.org/1999/xlink" x="0px" y="0px"
	 width="56.758px" height="24.004px" viewBox="0 0 56.758 24.004" enable-background="new 0 0 56.758 24.004" xml:space="preserve">
<g>
	<defs>
		<rect id="SVGID_1_" width="56.758" height="24.004"/>
	</defs>
	<clipPath id="SVGID_2_">
		<use xlink:href="#SVGID_1_"  overflow="visible"/>
	</clipPath>
	<g clip-path="url(#SVGID_2_)">
		<defs>
			<rect id="SVGID_3_" width="56.758" height="24.004"/>
		</defs>
		<clipPath id="SVGID_4_">
			<use xlink:href="#SVGID_3_"  overflow="visible"/>
		</clipPath>
		<g opacity="0.2" clip-path="url(#SVGID_4_)">
			<g>
				<defs>
					<rect id="SVGID_5_" y="2.75" width="33.005" height="9.001"/>
				</defs>
				<clipPath id="SVGID_6_">
					<use xlink:href="#SVGID_5_"  overflow="visible"/>
				</clipPath>
				<path clip-path="url(#SVGID_6_)" d="M0,10.25h19.504v1.501H0V10.25z M5.251,6.5h19.502v1.501H5.251V6.5z M13.502,2.75h19.502
					v1.5H13.502V2.75z"/>
			</g>
		</g>
	</g>
	<path clip-path="url(#SVGID_2_)" fill="#FFFFFF" d="M2,8.25h19.504v1.501H2V8.25z M7.251,4.5h19.502v1.501H7.251V4.5z M15.502,0.75
		h19.502v1.5H15.502V0.75z"/>
	<g clip-path="url(#SVGID_2_)">
		<defs>
			<rect id="SVGID_7_" width="56.758" height="24.004"/>
		</defs>
		<clipPath id="SVGID_8_">
			<use xlink:href="#SVGID_7_"  overflow="visible"/>
		</clipPath>
		<path clip-path="url(#SVGID_8_)" fill="#6395C4" d="M48.484,6.895c-0.096,0.12-0.246,0.189-0.405,0.189h-9.136
			c-0.149,0-0.291-0.06-0.387-0.167C38.46,6.812,38.42,6.67,38.442,6.534l0.763-4.253c0.041-0.227,0.253-0.395,0.502-0.395h7.025
			c0.226,0,0.425,0.138,0.487,0.339l1.347,4.254C48.611,6.621,48.582,6.775,48.484,6.895 M55.421,10.244
			c-1.008-0.399-2.926-0.81-2.926-0.81c-0.37-0.004-0.697-0.218-0.823-0.541L48.42,0.54C48.294,0.216,47.963,0,47.591,0h-9.069
			c-0.421,0-0.782,0.278-0.861,0.662l-3.605,17.219c-0.049,0.241,0.018,0.488,0.187,0.678c0.165,0.189,0.415,0.298,0.678,0.298
			h5.929c0.141-3.523,3.246-6.356,7.07-6.356s6.929,2.833,7.071,6.356h0.888c0.487,0,0.881-0.367,0.881-0.817v-5.374
			C56.758,12.629,56.108,10.542,55.421,10.244"/>
		<path clip-path="url(#SVGID_8_)" fill="#6395C4" d="M46.874,21.834c-1.186,0-2.143-0.975-2.143-2.168
			c0-1.201,0.957-2.17,2.143-2.17c1.177,0,2.141,0.969,2.141,2.17C49.015,20.859,48.051,21.834,46.874,21.834 M46.874,15.321
			c-2.37,0-4.292,1.945-4.292,4.345c0,2.391,1.922,4.338,4.292,4.338c2.361,0,4.284-1.947,4.284-4.338
			C51.158,17.267,49.235,15.321,46.874,15.321 M56.758,12.11v4.633c0,1.155-0.925,2.093-2.064,2.093h-2.212
			c-0.4-2.776-2.762-4.911-5.613-4.911c-2.845,0-5.207,2.135-5.606,4.911H30.056c-0.398-2.776-2.761-4.911-5.606-4.911
			c-2.844,0-5.207,2.135-5.606,4.911h-2.769c-1.142,0-2.066-0.938-2.066-2.093V12.11H56.758z M24.449,21.834
			c-1.185,0-2.142-0.975-2.142-2.168c0-1.201,0.957-2.17,2.142-2.17c1.184,0,2.141,0.969,2.141,2.17
			C26.59,20.859,25.633,21.834,24.449,21.834 M24.449,15.321c-2.37,0-4.285,1.945-4.285,4.345c0,2.391,1.915,4.338,4.285,4.338
			c2.368,0,4.283-1.947,4.283-4.338C28.731,17.267,26.817,15.321,24.449,15.321"/>
	</g>
</g>
</svg>
