<?xml version="1.0" encoding="utf-8"?>
<!-- Generator: Adobe Illustrator 15.1.0, SVG Export Plug-In . SVG Version: 6.00 Build 0)  -->
<!DOCTYPE svg PUBLIC "-//W3C//DTD SVG 1.1//EN" "http://www.w3.org/Graphics/SVG/1.1/DTD/svg11.dtd">
<svg version="1.1" id="Слой_1" xmlns="http://www.w3.org/2000/svg" xmlns:xlink="http://www.w3.org/1999/xlink" x="0px" y="0px"
	 width="54.758px" height="53.257px" viewBox="0 0 54.758 53.257" enable-background="new 0 0 54.758 53.257" xml:space="preserve">
<g>
	<defs>
		<rect id="SVGID_1_" width="54.758" height="53.257"/>
	</defs>
	<clipPath id="SVGID_2_">
		<use xlink:href="#SVGID_1_"  overflow="visible"/>
	</clipPath>
	<g clip-path="url(#SVGID_2_)">
		<defs>
			<rect id="SVGID_3_" y="0" width="54.758" height="53.257"/>
		</defs>
		<clipPath id="SVGID_4_">
			<use xlink:href="#SVGID_3_"  overflow="visible"/>
		</clipPath>
		<g opacity="0.2" clip-path="url(#SVGID_4_)">
			<g>
				<defs>
					<rect id="SVGID_5_" x="5.495" y="4.251" width="43.511" height="42.01"/>
				</defs>
				<clipPath id="SVGID_6_">
					<use xlink:href="#SVGID_5_"  overflow="visible"/>
				</clipPath>
				<path clip-path="url(#SVGID_6_)" d="M5.506,44.753h43.5v1.508h-43.5V44.753z M5.495,4.251h1.484V45.5H5.495V4.251z"/>
			</g>
		</g>
	</g>
	<path clip-path="url(#SVGID_2_)" fill="#FFFFFF" d="M7.506,42.753h43.5v1.508h-43.5V42.753z M7.495,2.251h1.484V43.5H7.495V2.251z"
		/>
	<g clip-path="url(#SVGID_2_)">
		<defs>
			<polygon id="SVGID_7_" points="7.495,2.25 7.495,43.5 7.506,43.5 7.506,44.261 51.006,44.261 51.006,42.753 8.979,42.753 
				8.979,2.25 			"/>
		</defs>
		<clipPath id="SVGID_8_">
			<use xlink:href="#SVGID_7_"  overflow="visible"/>
		</clipPath>
		<g clip-path="url(#SVGID_8_)">
			<defs>
				<path id="SVGID_9_" d="M5.506,44.753h43.5v1.508h-43.5V44.753z M5.495,4.251h1.484V45.5H5.495V4.251z"/>
			</defs>
			<clipPath id="SVGID_10_">
				<use xlink:href="#SVGID_9_"  overflow="visible"/>
			</clipPath>
			<g opacity="0.2" clip-path="url(#SVGID_10_)">
				<g>
					<defs>
						<rect id="SVGID_11_" x="5.495" y="4.251" width="43.511" height="42.01"/>
					</defs>
					<clipPath id="SVGID_12_">
						<use xlink:href="#SVGID_11_"  overflow="visible"/>
					</clipPath>
				</g>
			</g>
		</g>
	</g>
	<g clip-path="url(#SVGID_2_)">
		<defs>
			<rect id="SVGID_13_" y="0" width="54.758" height="53.257"/>
		</defs>
		<clipPath id="SVGID_14_">
			<use xlink:href="#SVGID_13_"  overflow="visible"/>
		</clipPath>
		<g opacity="0.2" clip-path="url(#SVGID_14_)">
			<g>
				<defs>
					<rect id="SVGID_15_" x="5.495" y="4.251" width="43.511" height="42.01"/>
				</defs>
				<clipPath id="SVGID_16_">
					<use xlink:href="#SVGID_15_"  overflow="visible"/>
				</clipPath>
			</g>
		</g>
		<g clip-path="url(#SVGID_14_)">
			<path fill="#6395C4" d="M46.591,18.919c-1.242,0-2.248,1.007-2.248,2.251c0,0.178,0.026,0.35,0.065,0.516l-4.878,5.366
				c-0.389-0.674-1.107-1.132-1.94-1.132c-1.01,0-1.854,0.67-2.138,1.585l-6.147-4.257c0.016-0.108,0.033-0.215,0.033-0.328
				c0-1.244-1.008-2.252-2.249-2.252c-1.243,0-2.249,1.008-2.249,2.252c0,0.334,0.078,0.649,0.208,0.935l-4.029,4.431
				c-0.216-0.068-0.442-0.116-0.681-0.116c-1.242,0-2.249,1.008-2.249,2.25c0,1.243,1.007,2.251,2.249,2.251
				c1.241,0,2.248-1.008,2.248-2.251c0-0.725-0.349-1.362-0.88-1.774l3.777-4.154c0.408,0.417,0.976,0.679,1.606,0.679
				c0.853,0,1.586-0.481,1.967-1.181l6.304,4.364c0.095,1.155,1.051,2.067,2.23,2.067c1.242,0,2.248-1.008,2.248-2.251
				c0-0.105-0.017-0.206-0.031-0.308l4.931-5.422c0.404,0.591,1.083,0.98,1.854,0.98c1.242,0,2.248-1.008,2.248-2.251
				C48.839,19.926,47.833,18.919,46.591,18.919z"/>
			<path fill="#6395C4" d="M48.082,4.166c-3.318,0-6.008,2.682-6.008,5.99c0,0.826,0.168,1.613,0.471,2.329l-3.015,3.316
				c-0.389-0.674-1.107-1.132-1.94-1.132c-1.01,0-1.854,0.669-2.138,1.586L29.12,11.87c0.136-0.29,0.218-0.61,0.218-0.952
				c0-1.243-1.008-2.25-2.249-2.25c-1.243,0-2.249,1.007-2.249,2.25c0,0.524,0.186,1,0.485,1.382l-4.526,4.978
				c-0.35-0.225-0.765-0.359-1.212-0.359c-1.241,0-2.249,1.007-2.249,2.251c0,1.243,1.008,2.251,2.249,2.251
				c1.242,0,2.249-1.008,2.249-2.251c0-0.524-0.187-1-0.486-1.383l4.525-4.978c0.351,0.226,0.766,0.36,1.214,0.36
				c0.631,0,1.199-0.262,1.607-0.681l6.663,4.613c0.094,1.156,1.051,2.068,2.23,2.068c1.242,0,2.248-1.007,2.248-2.25
				c0-0.105-0.017-0.207-0.031-0.308l3.105-3.416c1.045,1.764,2.966,2.951,5.17,2.951c3.317,0,6.008-2.682,6.008-5.991
				C54.09,6.848,51.399,4.166,48.082,4.166z"/>
		</g>
	</g>
</g>
</svg>
