<?xml version="1.0" encoding="utf-8"?>
<!-- Generator: Adobe Illustrator 15.1.0, SVG Export Plug-In . SVG Version: 6.00 Build 0)  -->
<!DOCTYPE svg PUBLIC "-//W3C//DTD SVG 1.1//EN" "http://www.w3.org/Graphics/SVG/1.1/DTD/svg11.dtd">
<svg version="1.1" id="Слой_1" xmlns="http://www.w3.org/2000/svg" xmlns:xlink="http://www.w3.org/1999/xlink" x="0px" y="0px"
	 width="50.756px" height="41.748px" viewBox="0 0 50.756 41.748" enable-background="new 0 0 50.756 41.748" xml:space="preserve">
<g enable-background="new    ">
	<g>
		<defs>
			<rect id="SVGID_1_" y="0" width="50.756" height="41.747"/>
		</defs>
		<clipPath id="SVGID_2_">
			<use xlink:href="#SVGID_1_"  overflow="visible"/>
		</clipPath>
		<g opacity="0.2" clip-path="url(#SVGID_2_)">
			<g>
				<defs>
					<rect id="SVGID_3_" y="2" width="48.756" height="39.748"/>
				</defs>
				<clipPath id="SVGID_4_">
					<use xlink:href="#SVGID_3_"  overflow="visible"/>
				</clipPath>
				<path clip-path="url(#SVGID_4_)" d="M13.43,32.723h4.58h13.468h2.969h12.811V3.499H1.5v29.225H13.43 M34.908,41.554
					c0,0-4.003-7.268-4.039-7.332H18.547c-0.117,0.245-3.255,6.844-3.255,6.844c-0.064,0.135-0.199,0.215-0.339,0.215
					c-0.05,0-0.1-0.011-0.147-0.031l-0.737-0.313c-0.096-0.04-0.17-0.118-0.206-0.215c-0.015-0.041-0.022-0.085-0.022-0.128
					c0-0.059,0.013-0.116,0.039-0.17c0,0,2.635-5.285,3.092-6.202H0.375C0.167,34.222,0,34.054,0,33.848V2.375
					C0,2.168,0.167,2,0.375,2h48.007c0.207,0,0.374,0.168,0.374,0.375v31.473c0,0.206-0.167,0.374-0.374,0.374H32.497
					c0.521,0.945,3.662,6.648,3.662,6.648c0.031,0.057,0.046,0.118,0.046,0.182c0,0.034-0.005,0.07-0.014,0.104
					c-0.028,0.097-0.094,0.177-0.182,0.225l-0.595,0.321c-0.057,0.031-0.117,0.045-0.179,0.045
					C35.104,41.748,34.978,41.678,34.908,41.554"/>
			</g>
		</g>
		<path clip-path="url(#SVGID_2_)" fill="#FFFFFF" d="M15.43,30.723h4.58h13.468h2.969h12.811V1.499H3.5v29.225H15.43
			 M36.908,39.554c0,0-4.003-7.268-4.039-7.332H20.547c-0.117,0.245-3.255,6.844-3.255,6.844c-0.064,0.135-0.199,0.215-0.339,0.215
			c-0.05,0-0.1-0.011-0.147-0.031l-0.737-0.313c-0.096-0.04-0.17-0.118-0.206-0.215c-0.015-0.041-0.022-0.085-0.022-0.128
			c0-0.059,0.013-0.116,0.039-0.17c0,0,2.635-5.285,3.092-6.202H2.375C2.167,32.222,2,32.054,2,31.848V0.375
			C2,0.168,2.167,0,2.375,0h48.007c0.207,0,0.374,0.168,0.374,0.375v31.473c0,0.206-0.167,0.374-0.374,0.374H34.497
			c0.521,0.945,3.662,6.648,3.662,6.648c0.031,0.057,0.046,0.118,0.046,0.182c0,0.034-0.005,0.07-0.014,0.104
			c-0.028,0.097-0.094,0.177-0.182,0.225l-0.595,0.321c-0.057,0.031-0.117,0.045-0.179,0.045
			C37.104,39.748,36.978,39.678,36.908,39.554"/>
	</g>
	<g>
		<defs>
			<path id="SVGID_5_" d="M18.723,32.722c-0.801,1.606-2.843,5.702-2.843,5.702c-0.026,0.054-0.038,0.111-0.038,0.169
				c0,0.044,0.007,0.087,0.022,0.128c0.035,0.098,0.11,0.177,0.206,0.216l0.195,0.083c0.932-1.961,2.208-4.644,2.282-4.799h1.049
				c0.287-0.603,0.54-1.135,0.713-1.499H18.723z M34.447,32.722h-1.303c0.199,0.361,0.491,0.893,0.826,1.499h1.628
				c-0.323-0.587-0.614-1.114-0.825-1.499H34.447z M47.256,32.221h1.499v-1.499h-1.499V32.221z M2,3.5h1.499V2H2V3.5z"/>
		</defs>
		<clipPath id="SVGID_6_">
			<use xlink:href="#SVGID_5_"  overflow="visible"/>
		</clipPath>
		<g opacity="0.2" clip-path="url(#SVGID_6_)">
			<g>
				<defs>
					<rect id="SVGID_7_" y="2" width="48.756" height="39.748"/>
				</defs>
				<clipPath id="SVGID_8_">
					<use xlink:href="#SVGID_7_"  overflow="visible"/>
				</clipPath>
			</g>
		</g>
	</g>
	<g>
		<defs>
			<rect id="SVGID_9_" y="0" width="50.756" height="41.747"/>
		</defs>
		<clipPath id="SVGID_10_">
			<use xlink:href="#SVGID_9_"  overflow="visible"/>
		</clipPath>
		<g opacity="0.2" clip-path="url(#SVGID_10_)">
			<g>
				<defs>
					<rect id="SVGID_11_" y="2" width="48.756" height="39.748"/>
				</defs>
				<clipPath id="SVGID_12_">
					<use xlink:href="#SVGID_11_"  overflow="visible"/>
				</clipPath>
			</g>
		</g>
		<path clip-path="url(#SVGID_10_)" fill="#6395C4" d="M37.936,14.115c0.231,0,0.385,0.158,0.385,0.394
			c0,0.238-0.153,0.395-0.385,0.395c-0.23,0-0.386-0.157-0.386-0.395C37.55,14.271,37.703,14.115,37.936,14.115 M38.705,23.587
			c0.231,0,0.385,0.159,0.385,0.396c0,0.236-0.153,0.394-0.385,0.394h-2.309c-0.231,0-0.387-0.157-0.387-0.394
			c0-0.237,0.155-0.396,0.387-0.396H38.705z M14.454,19.247h7.315c0.23,0,0.385,0.158,0.385,0.394c0,0.237-0.155,0.395-0.385,0.395
			h-7.315c-0.23,0-0.385-0.158-0.385-0.395C14.069,19.405,14.224,19.247,14.454,19.247 M14.454,16.877h7.315
			c0.23,0,0.385,0.158,0.385,0.395c0,0.236-0.155,0.394-0.385,0.394h-7.315c-0.23,0-0.385-0.158-0.385-0.394
			C14.069,17.036,14.224,16.877,14.454,16.877 M14.454,14.509h7.315c0.23,0,0.385,0.159,0.385,0.395
			c0,0.236-0.155,0.396-0.385,0.396h-7.315c-0.23,0-0.385-0.16-0.385-0.396C14.069,14.667,14.224,14.509,14.454,14.509
			 M15.61,23.587c0.23,0,0.385,0.159,0.385,0.396c0,0.236-0.155,0.394-0.385,0.394H13.3c-0.231,0-0.385-0.157-0.385-0.394
			c0-0.237,0.154-0.396,0.385-0.396H15.61z M27.003,12.535H12.915c-0.423,0-0.77,0.356-0.77,0.789v7.897
			c0,0.434,0.346,0.789,0.77,0.789H39.09c0.423,0,0.771-0.354,0.771-0.789v-7.897c0-0.433-0.348-0.789-0.771-0.789h-3.349
			c0.154,0.514,0.269,1.027,0.269,1.58c0,2.605-2.078,4.736-4.619,4.736c-2.539,0-4.618-2.131-4.618-4.736
			C26.772,13.562,26.849,13.049,27.003,12.535 M12.915,11.746h14.474c0.809-1.421,2.31-2.369,4.002-2.369
			c1.694,0,3.195,0.948,4.004,2.369h3.695c0.847,0,1.54,0.711,1.54,1.578v7.897c0,0.868-0.693,1.577-1.54,1.577H12.915
			c-0.847,0.001-1.539-0.709-1.539-1.577v-7.895C11.376,12.457,12.068,11.746,12.915,11.746"/>
	</g>
</g>
</svg>
