<?xml version="1.0" encoding="utf-8"?>
<!-- Generator: Adobe Illustrator 15.1.0, SVG Export Plug-In . SVG Version: 6.00 Build 0)  -->
<!DOCTYPE svg PUBLIC "-//W3C//DTD SVG 1.1//EN" "http://www.w3.org/Graphics/SVG/1.1/DTD/svg11.dtd">
<svg version="1.1" id="Слой_1" xmlns="http://www.w3.org/2000/svg" xmlns:xlink="http://www.w3.org/1999/xlink" x="0px" y="0px"
	 width="37.131px" height="48.006px" viewBox="0 0 37.131 48.006" enable-background="new 0 0 37.131 48.006" xml:space="preserve">
<g enable-background="new    ">
	<g>
		<g opacity="0.2">
			<g>
				<defs>
					<rect id="SVGID_1_" y="1.917" width="35.255" height="45.007"/>
				</defs>
				<clipPath id="SVGID_2_">
					<use xlink:href="#SVGID_1_"  overflow="visible"/>
				</clipPath>
				<path clip-path="url(#SVGID_2_)" d="M35.255,46.923H0V1.917h28.191l0.156,0.172l0.011-0.009l0.237,0.281l6.659,7.262V46.923z
					 M33.754,45.423V10.207l-5.43-5.924L27.53,3.417H1.5v42.006H33.754"/>
			</g>
		</g>
		<g opacity="0.2">
			<g>
				<defs>
					<rect id="SVGID_3_" x="9.371" y="13.987" width="15.619" height="5.596"/>
				</defs>
				<clipPath id="SVGID_4_">
					<use xlink:href="#SVGID_3_"  overflow="visible"/>
				</clipPath>
				<path clip-path="url(#SVGID_4_)" d="M21.866,14.609h-9.372v-0.621h9.372V14.609z M24.99,17.097H9.371v-0.621H24.99V17.097z
					 M21.866,19.583h-9.372V18.96h9.372V19.583z"/>
			</g>
		</g>
	</g>
	<rect y="0" fill="none" width="37.131" height="48.006"/>
	<path fill="#FFFFFF" d="M3.375,1.5h26.031l0.794,0.865L35.63,8.29v35.217H3.375V1.5z M1.875,0v45.006h35.255V7.706l-6.658-7.262
		l-0.239-0.281l-0.011,0.01L30.066,0H1.875z"/>
	<path fill="#FFFFFF" d="M23.741,12.692h-9.372v-0.621h9.372V12.692z M26.865,15.18H11.246V14.56h15.619V15.18z M23.741,17.667
		h-9.372v-0.623h9.372V17.667z"/>
	<g>
		<defs>
			<rect id="SVGID_5_" y="0" width="37.131" height="48.006"/>
		</defs>
		<clipPath id="SVGID_6_">
			<use xlink:href="#SVGID_5_"  overflow="visible"/>
		</clipPath>
		<path clip-path="url(#SVGID_6_)" fill="#6395C4" d="M27.016,48.006c-0.978-1.318-1.955-2.637-2.979-4.016
			c-1.011,1.314-1.995,2.59-3.078,3.997V36.982c-0.737,0.165-1.395,0.315-2.172,0.491c0.17-0.761,0.298-1.436,0.475-2.099
			c0.107-0.402,0.015-0.573-0.388-0.673c-0.639-0.16-1.262-0.391-1.996-0.622c0.605-0.682,1.171-1.319,1.755-1.978
			c-0.58-0.648-1.14-1.273-1.755-1.962c0.74-0.239,1.392-0.476,2.06-0.651c0.361-0.097,0.418-0.267,0.333-0.603
			c-0.168-0.673-0.31-1.352-0.487-2.146c0.731,0.167,1.379,0.268,1.994,0.47c0.471,0.155,0.624-0.022,0.729-0.443
			c0.162-0.635,0.356-1.262,0.571-2.013c0.66,0.626,1.263,1.198,1.913,1.814c0.631-0.594,1.239-1.167,1.912-1.801
			c0.229,0.763,0.449,1.438,0.63,2.121c0.093,0.356,0.244,0.438,0.584,0.341c0.653-0.181,1.318-0.317,2.084-0.497
			c-0.197,0.903-0.374,1.726-0.567,2.609c0.81,0.26,1.598,0.511,2.496,0.797c-0.611,0.671-1.186,1.302-1.788,1.961
			c0.596,0.658,1.174,1.295,1.787,1.974c-0.882,0.28-1.671,0.531-2.499,0.795c0.19,0.861,0.369,1.673,0.571,2.594
			c-0.723-0.158-1.371-0.298-2.068-0.45v10.995H27.016"/>
	</g>
</g>
</svg>
