<svg id="advantage-icon6.svg" xmlns="http://www.w3.org/2000/svg" xmlns:xlink="http://www.w3.org/1999/xlink" width="64" height="77" viewBox="0 0 64 77">
  <defs>
    <style>
      .cls-1, .cls-3, .cls-4, .cls-5 {
        fill: none;
        stroke: #fff;
      }

      .cls-1 {
        stroke-width: 2px;
        opacity: 0.92;
        filter: url(#filter);
      }

      .cls-1, .cls-2, .cls-3, .cls-4, .cls-5 {
        fill-rule: evenodd;
      }

      .cls-2 {
        fill: #6395c4;
      }

      .cls-3, .cls-4, .cls-5 {
        stroke-width: 1.333px;
      }

      .cls-3 {
        filter: url(#filter-2);
      }

      .cls-4 {
        filter: url(#filter-3);
      }

      .cls-5 {
        filter: url(#filter-4);
      }
    </style>
    <filter id="filter" x="779" y="2422" width="62" height="75" filterUnits="userSpaceOnUse">
      <feOffset result="offset" dx="-2.868" dy="4.096" in="SourceAlpha"/>
      <feGaussianBlur result="blur" stdDeviation="2.828"/>
      <feFlood result="flood" flood-color="#0d0c0d"/>
      <feComposite result="composite" operator="in" in2="blur"/>
      <feBlend result="blend" in="SourceGraphic"/>
    </filter>
    <filter id="filter-2" x="795" y="2438" width="29" height="16" filterUnits="userSpaceOnUse">
      <feOffset result="offset" dx="-2.868" dy="4.096" in="SourceAlpha"/>
      <feGaussianBlur result="blur" stdDeviation="2.828"/>
      <feFlood result="flood" flood-color="#0d0c0d"/>
      <feComposite result="composite" operator="in" in2="blur"/>
      <feBlend result="blend" in="SourceGraphic"/>
    </filter>
    <filter id="filter-3" x="795" y="2444" width="29" height="17" filterUnits="userSpaceOnUse">
      <feOffset result="offset" dx="-2.868" dy="4.096" in="SourceAlpha"/>
      <feGaussianBlur result="blur" stdDeviation="2.828"/>
      <feFlood result="flood" flood-color="#0d0c0d"/>
      <feComposite result="composite" operator="in" in2="blur"/>
      <feBlend result="blend" in="SourceGraphic"/>
    </filter>
    <filter id="filter-4" x="791" y="2441" width="37" height="17" filterUnits="userSpaceOnUse">
      <feOffset result="offset" dx="-2.868" dy="4.096" in="SourceAlpha"/>
      <feGaussianBlur result="blur" stdDeviation="2.828"/>
      <feFlood result="flood" flood-color="#0d0c0d"/>
      <feComposite result="composite" operator="in" in2="blur"/>
      <feBlend result="blend" in="SourceGraphic"/>
    </filter>
  </defs>
  <g style="fill: none; filter: url(#filter)">
    <path id="Shape_39_copy" data-name="Shape 39 copy" class="cls-1" d="M836,2435.27V2485H789v-60h37.582m-0.665,1.34,0.656-.68,8.868,11-0.656.68Zm0.235-.45,0.653-.68,8.4,9.89-0.653.68Z" transform="translate(-778 -2421)" style="stroke: inherit; filter: none; fill: inherit"/>
  </g>
  <use xlink:href="#Shape_39_copy" style="stroke: #fff; filter: none; fill: none"/>
  <path id="Фигура_5" data-name="Фигура 5" class="cls-2" d="M822.516,2489c-1.3-1.76-2.606-3.52-3.97-5.36-1.349,1.76-2.661,3.46-4.106,5.33V2474.3c-0.982.22-1.858,0.42-2.9,0.66,0.226-1.02.4-1.92,0.634-2.8a0.6,0.6,0,0,0-.517-0.9c-0.852-.21-1.682-0.52-2.662-0.83,0.807-.91,1.561-1.76,2.341-2.63-0.774-.87-1.52-1.7-2.341-2.62,0.987-.32,1.856-0.63,2.746-0.87a0.541,0.541,0,0,0,.446-0.8c-0.225-.9-0.414-1.8-0.652-2.86,0.976,0.22,1.839.35,2.659,0.62,0.627,0.21.831-.03,0.974-0.59,0.214-.84.473-1.68,0.759-2.68,0.881,0.83,1.685,1.6,2.552,2.42,0.841-.79,1.651-1.56,2.548-2.4,0.306,1.01.6,1.91,0.839,2.82a0.525,0.525,0,0,0,.781.46c0.87-.24,1.757-0.42,2.776-0.66-0.261,1.2-.5,2.3-0.754,3.48,1.077,0.34,2.129.68,3.326,1.06-0.814.89-1.58,1.73-2.382,2.61,0.794,0.88,1.563,1.73,2.381,2.63-1.175.38-2.228,0.71-3.331,1.06,0.252,1.15.491,2.23,0.761,3.46-0.962-.21-1.828-0.4-2.757-0.6V2489h-0.156" transform="translate(-778 -2421)"/>
  <g style="fill: none; filter: url(#filter-2)">
    <path id="Фигура_6" data-name="Фигура 6" class="cls-3" d="M805.657,2441.92v-0.83H818.15v0.83H805.657Z" transform="translate(-778 -2421)" style="stroke: inherit; filter: none; fill: inherit"/>
  </g>
  <use xlink:href="#Фигура_6" style="stroke: #fff; filter: none; fill: none"/>
  <g style="fill: none; filter: url(#filter-3)">
    <path id="Фигура_6_kопировать_2" data-name="Фигура 6 kопировать 2" class="cls-4" d="M805.657,2448.55v-0.83H818.15v0.83H805.657Z" transform="translate(-778 -2421)" style="stroke: inherit; filter: none; fill: inherit"/>
  </g>
  <use xlink:href="#Фигура_6_kопировать_2" style="stroke: #fff; filter: none; fill: none"/>
  <g style="fill: none; filter: url(#filter-4)">
    <path id="Фигура_6_kопировать" data-name="Фигура 6 kопировать" class="cls-5" d="M801.493,2445.24v-0.83h20.821v0.83H801.493Z" transform="translate(-778 -2421)" style="stroke: inherit; filter: none; fill: inherit"/>
  </g>
  <use xlink:href="#Фигура_6_kопировать" style="stroke: #fff; filter: none; fill: none"/>
</svg>
