<svg id="SvgjsSvg1021" xmlns="http://www.w3.org/2000/svg" version="1.1" xmlns:xlink="http://www.w3.org/1999/xlink" xmlns:svgjs="http://svgjs.com/svgjs" width="67.9985" height="84.03565683284266"><defs id="SvgjsDefs1022"><filter id="SvgjsFilter1024" width="200%" height="200%" x="-50%" y="-50%"><feGaussianBlur id="SvgjsFeGaussianBlur1025" stdDeviation="4 " result="SvgjsFeGaussianBlur1025Out" in="SourceGraphic"></feGaussianBlur></filter></defs><path id="SvgjsPath1023" d="M32.8292 8.127759999999999L7.6176999999999975 17.621000000000002C7.317299999999998 17.7315 7.101199999999997 18.0417 7.100699999999998 18.3626L7.100699999999998 48.4253C7.100699999999998 54.3326 10.641999999999998 59.2708 15.545499999999999 63.6787C20.448999999999998 68.08659999999999 26.7626 72.01979999999999 32.6568 75.96539999999999C32.916199999999996 76.14259999999999 33.283699999999996 76.14259999999999 33.543099999999995 75.96539999999999C39.4372 72.01979999999999 45.750899999999994 68.08659999999999 50.654399999999995 63.6787C55.5579 59.2708 59.099199999999996 54.3326 59.099199999999996 48.4253L59.099199999999996 18.3626C59.098699999999994 18.0417 58.88269999999999 17.731499999999997 58.58219999999999 17.621L33.370799999999996 8.127759999999999C33.134299999999996 8.00706 32.891999999999996 8.082709999999999 32.82919999999999 8.127759999999999ZM33.0999 9.709959999999999L57.5235 18.906599999999997L57.5235 48.4253C57.5235 53.698100000000004 54.3681 58.2237 49.6204 62.4918C44.99059999999999 66.6536 38.8923 70.49369999999999 33.0999 74.35849999999999C27.307599999999994 70.49369999999999 21.2093 66.6536 16.5796 62.4918C11.831799999999998 58.2237 8.676399999999997 53.6981 8.676399999999997 48.4253L8.676399999999997 18.906599999999997Z " fill="#0d0c0d" fill-opacity="1" filter="url(#SvgjsFilter1024)" transform="matrix(1,0,0,1,0.8992500000000034,0.4178284164213313)"></path><path id="SvgjsPath1026" d="M35.7292 4.02776L10.517699999999998 13.521C10.217299999999998 13.6315 10.001199999999997 13.9417 10.000699999999998 14.2626L10.000699999999998 44.3253C10.000699999999998 50.2326 13.541999999999998 55.1708 18.4455 59.5787C23.349 63.986599999999996 29.662599999999998 67.9198 35.556799999999996 71.8654C35.816199999999995 72.0426 36.183699999999995 72.0426 36.443099999999994 71.8654C42.337199999999996 67.9198 48.65089999999999 63.986599999999996 53.554399999999994 59.5787C58.457899999999995 55.1708 61.999199999999995 50.2326 61.999199999999995 44.3253L61.999199999999995 14.262599999999999C61.99869999999999 13.941699999999999 61.78269999999999 13.631499999999999 61.48219999999999 13.520999999999999L36.270799999999994 4.027759999999999C36.034299999999995 3.907059999999999 35.791999999999994 3.982709999999999 35.72919999999999 4.027759999999999ZM35.9999 5.60996L60.4235 14.8066L60.4235 44.3253C60.4235 49.5981 57.2681 54.1237 52.520399999999995 58.391799999999996C47.89059999999999 62.553599999999996 41.7923 66.3937 35.9999 70.2585C30.207599999999996 66.3937 24.109299999999998 62.553599999999996 19.479599999999998 58.391799999999996C14.731799999999998 54.1237 11.576399999999998 49.598099999999995 11.576399999999998 44.3253L11.576399999999998 14.8066Z " fill="#ffffff" transform="matrix(1,0,0,1,0.8992500000000034,0.4178284164213313)"></path></svg>