<svg id="sprite_sensitive-imago" xmlns="http://www.w3.org/2000/svg"
	 style="height:0; width:0; visibility:hidden; position:absolute; top:0; left:0;">
	<symbol id="icon-email" viewBox="0 0 50 50">
		<path d="M0,5.7v5l25,19.6l25-19.6v-5H0z M45.8,9.4L25,26.5L4.2,9.4V9h41.7V9.4L45.8,9.4z"></path>
		<path d="M46.6,38.5H3.4V21.8H0v20h50v-20h-3.4V38.5z"></path>
	</symbol>
	<symbol id="icon-marker" viewBox="0 0 50 50">
		<path
			d="M25,49.8l-1-1.2C23.6,48,12.4,33.8,9,22.7c-0.6-1.6-0.9-3.3-1-5.1c0-0.2,0-0.4,0-0.6C8,7.6,15.6,0,25,0c4.5,0,8.8,1.8,12,5  c3.2,3.2,5,7.5,5,12c0,0.2,0,0.4,0,0.6c-0.1,1.7-0.4,3.4-1,5.1C37.6,33.8,26.4,48,26,48.6L25,49.8z M25,2.4C17,2.4,10.4,9,10.4,17  c0,0.1,0,0.3,0,0.5c0.1,1.5,0.3,3,0.8,4.4l0,0.1C14,30.8,22.2,42.1,25,45.8c2.8-3.7,11-15,13.7-23.8l0-0.1c0.5-1.4,0.8-2.9,0.8-4.4  l0,0c0-0.2,0-0.4,0-0.5c0-3.9-1.5-7.5-4.3-10.3S28.9,2.4,25,2.4z M25,26c-4.9,0-9-4-9-9c0-4.9,4-9,9-9s9,4,9,9  C34,21.9,29.9,26,25,26z M25,10.5c-3.6,0-6.5,2.9-6.5,6.5c0,3.6,2.9,6.5,6.5,6.5c3.6,0,6.5-2.9,6.5-6.5C31.5,13.4,28.6,10.5,25,10.5  z"></path>
	</symbol>
	<symbol id="icon-time" viewBox="0 0 50 50">
		<polygon
			points="20.9,27.6 23.6,24.8 17.3,18.4 18.7,17 25.1,23.4 35.6,12.8 37.1,14.2 26.5,24.8 28.2,26.5 26.8,27.9 25.1,26.2    22.3,29  "></polygon>
		<rect x="24" y="4" width="2" height="3.2"></rect>
		<rect x="33.1" y="7.2" transform="matrix(-0.5 0.866 -0.866 -0.5 59.1659 -17.7944)" width="3.2"
			  height="2"></rect>
		<rect x="40.3" y="14.3" transform="matrix(-0.866 0.5 -0.5 -0.866 85.7144 7.6289)" width="3.2" height="2"></rect>
		<rect x="42.9" y="24" width="3.2" height="2"></rect>
		<rect x="40.8" y="33.2" transform="matrix(-0.5 0.8661 -0.8661 -0.5 92.8353 15.8733)" width="2"
			  height="3.2"></rect>
		<rect x="33.7" y="40.3" transform="matrix(-0.866 0.5 -0.5 -0.866 85.7148 60.738)" width="2" height="3.2"></rect>
		<rect x="24" y="42.9" width="2" height="3.2"></rect>
		<rect x="13.7" y="40.8" transform="matrix(-0.5 0.866 -0.866 -0.5 59.1661 49.5464)" width="3.2"
			  height="2"></rect>
		<rect x="6.6" y="33.7" transform="matrix(-0.866 0.5 -0.5 -0.866 32.6048 60.7387)" width="3.2" height="2"></rect>
		<rect x="4" y="24" width="3.2" height="2"></rect>
		<rect x="7.2" y="13.7" transform="matrix(-0.5 0.866 -0.866 -0.5 25.4958 15.8762)" width="2" height="3.2"></rect>
		<rect x="14.3" y="6.6" transform="matrix(-0.866 0.5 -0.5 -0.866 32.6046 7.6293)" width="2" height="3.2"></rect>
		<path
			d="M25,0C11.2,0,0,11.2,0,25s11.2,25,25,25s25-11.2,25-25S38.8,0,25,0z M25,47.2c-12.3,0-22.2-10-22.2-22.2S12.7,2.8,25,2.8   s22.2,10,22.2,22.2S37.3,47.2,25,47.2z"></path>
	</symbol>
	<symbol id="icon_wezom" viewBox="0 0 57 21">
		<path
			d="M1.106,1.145c1.478-1.556,3.873-1.556,5.351,0l12.392,13.042  c1.477,1.555,1.477,4.076,0,5.632c-1.478,1.556-3.874,1.556-5.351,0L1.106,6.777C-0.371,5.222-0.371,2.7,1.106,1.145z"></path>
		<path
			d="M31.195,1.145c-1.478-1.556-3.874-1.556-5.351,0L13.453,14.188  c-1.478,1.555-1.478,4.076,0,5.632s3.873,1.556,5.351,0L31.195,6.777C32.672,5.222,32.672,2.7,31.195,1.145z"></path>
		<path
			d="M25.799,1.145c1.478-1.556,3.874-1.556,5.351,0l12.391,13.042  c1.478,1.555,1.478,4.076,0,5.632s-3.873,1.556-5.351,0L25.799,6.777C24.321,5.222,24.321,2.7,25.799,1.145z"></path>
		<path
			d="M55.887,1.145c-1.478-1.556-3.873-1.556-5.351,0L38.146,14.188  c-1.478,1.555-1.478,4.076,0,5.632s3.873,1.556,5.351,0L55.887,6.777C57.365,5.222,57.365,2.7,55.887,1.145z"></path>
	</symbol>
	<symbol id="mail" viewBox="0 0 16 13">
		<path
			d="M1344,58V71h16V58h-16Zm14.07,1.084L1352,64.346l-6.07-5.264h12.14ZM1359,69.915h-14V59.667l7,6.065,7-6.065V69.915Z"
			transform="translate(-1344 -58)"></path>
	</symbol>
	<symbol id="phone" viewBox="0 0 10 18">
		<path
			d="M1110.39,74h9.22a0.4,0.4,0,0,0,.39-0.4V56.4a0.4,0.4,0,0,0-.39-0.406h-9.22a0.4,0.4,0,0,0-.39.406v17.19A0.394,0.394,0,0,0,1110.39,74Zm4.61-.954a0.608,0.608,0,1,1,.59-0.608A0.6,0.6,0,0,1,1115,73.044ZM1114.02,57.3h1.96V57.8h-1.96V57.3Zm-2.9,1.612h7.76V71.089h-7.76V58.907Z"
			transform="translate(-1110 -56)"></path>
	</symbol>
	<symbol id="quotes" viewBox="0 0 52 41">
		<path
			d="M1104.25,4783.96V4761H1127v23.29c0,15.74-14.63,17.71-14.63,17.71l-1.95-4.59s6.5-.99,7.8-6.24a8.245,8.245,0,0,0-1.3-7.21h-12.67Zm-29.25,0V4761h22.75v23.29c0,15.74-14.63,17.71-14.63,17.71l-1.94-4.59s6.5-.99,7.79-6.24a8.257,8.257,0,0,0-1.29-7.21H1075Z"
			transform="translate(-1075 -4761)"></path>
	</symbol>
	<symbol id="curve_arrow" viewBox="0 0 291 141">
		<path id="curve-arrow.svg"
			  d="M864.646,637.08H1074.18a22.728,22.728,0,1,1,0,45.455H846.819a31.755,31.755,0,1,0,0,63.509h54.254l-15.2,15.2a4.542,4.542,0,0,0,6.424,6.422l22.973-22.93a4.561,4.561,0,0,0,1.345-3.193v-0.4a4.371,4.371,0,0,0-1.345-3.194l-22.939-22.93a4.542,4.542,0,0,0-6.425,6.422l15.641,15.633H846.819a22.728,22.728,0,1,1,0-45.455H1074.18a31.8,31.8,0,1,0,0-63.609H864.646"
			  transform="translate(-815 -628)"/>
	</symbol>
</svg>