<svg id="sprite_sensitive-imago" xmlns="http://www.w3.org/2000/svg"
	 style="height:0; width:0; visibility:hidden; position:absolute; top:0; left:0;">
	<symbol id="icon-email" viewBox="0 0 50 50">
		<path d="M0,5.7v5l25,19.6l25-19.6v-5H0z M45.8,9.4L25,26.5L4.2,9.4V9h41.7V9.4L45.8,9.4z"/>
		<path d="M46.6,38.5H3.4V21.8H0v20h50v-20h-3.4V38.5z"/>g
	</symbol>
	<symbol id="icon-marker" viewBox="0 0 50 50">
		<path
			d="M25,49.8l-1-1.2C23.6,48,12.4,33.8,9,22.7c-0.6-1.6-0.9-3.3-1-5.1c0-0.2,0-0.4,0-0.6C8,7.6,15.6,0,25,0c4.5,0,8.8,1.8,12,5  c3.2,3.2,5,7.5,5,12c0,0.2,0,0.4,0,0.6c-0.1,1.7-0.4,3.4-1,5.1C37.6,33.8,26.4,48,26,48.6L25,49.8z M25,2.4C17,2.4,10.4,9,10.4,17  c0,0.1,0,0.3,0,0.5c0.1,1.5,0.3,3,0.8,4.4l0,0.1C14,30.8,22.2,42.1,25,45.8c2.8-3.7,11-15,13.7-23.8l0-0.1c0.5-1.4,0.8-2.9,0.8-4.4  l0,0c0-0.2,0-0.4,0-0.5c0-3.9-1.5-7.5-4.3-10.3S28.9,2.4,25,2.4z M25,26c-4.9,0-9-4-9-9c0-4.9,4-9,9-9s9,4,9,9  C34,21.9,29.9,26,25,26z M25,10.5c-3.6,0-6.5,2.9-6.5,6.5c0,3.6,2.9,6.5,6.5,6.5c3.6,0,6.5-2.9,6.5-6.5C31.5,13.4,28.6,10.5,25,10.5  z"/>
	</symbol>
	<symbol id="icon-time" viewBox="0 0 50 50">
		<polygon
			points="20.9,27.6 23.6,24.8 17.3,18.4 18.7,17 25.1,23.4 35.6,12.8 37.1,14.2 26.5,24.8 28.2,26.5 26.8,27.9 25.1,26.2    22.3,29  "/>
		<rect x="24" y="4" width="2" height="3.2"/>
		<rect x="33.1" y="7.2" transform="matrix(-0.5 0.866 -0.866 -0.5 59.1659 -17.7944)" width="3.2"
			  height="2"/>
		<rect x="40.3" y="14.3" transform="matrix(-0.866 0.5 -0.5 -0.866 85.7144 7.6289)" width="3.2" height="2"/>
		<rect x="42.9" y="24" width="3.2" height="2"/>
		<rect x="40.8" y="33.2" transform="matrix(-0.5 0.8661 -0.8661 -0.5 92.8353 15.8733)" width="2"
			  height="3.2"/>
		<rect x="33.7" y="40.3" transform="matrix(-0.866 0.5 -0.5 -0.866 85.7148 60.738)" width="2" height="3.2"/>
		<rect x="24" y="42.9" width="2" height="3.2"/>
		<rect x="13.7" y="40.8" transform="matrix(-0.5 0.866 -0.866 -0.5 59.1661 49.5464)" width="3.2"
			  height="2"/>
		<rect x="6.6" y="33.7" transform="matrix(-0.866 0.5 -0.5 -0.866 32.6048 60.7387)" width="3.2" height="2"/>
		<rect x="4" y="24" width="3.2" height="2"/>
		<rect x="7.2" y="13.7" transform="matrix(-0.5 0.866 -0.866 -0.5 25.4958 15.8762)" width="2" height="3.2"/>
		<rect x="14.3" y="6.6" transform="matrix(-0.866 0.5 -0.5 -0.866 32.6046 7.6293)" width="2" height="3.2"/>
		<path
			d="M25,0C11.2,0,0,11.2,0,25s11.2,25,25,25s25-11.2,25-25S38.8,0,25,0z M25,47.2c-12.3,0-22.2-10-22.2-22.2S12.7,2.8,25,2.8   s22.2,10,22.2,22.2S37.3,47.2,25,47.2z"/>
	</symbol>
	<symbol id="icon_wezom" viewBox="0 0 57 21">
		<path
			d="M1.106,1.145c1.478-1.556,3.873-1.556,5.351,0l12.392,13.042  c1.477,1.555,1.477,4.076,0,5.632c-1.478,1.556-3.874,1.556-5.351,0L1.106,6.777C-0.371,5.222-0.371,2.7,1.106,1.145z"/>
		<path
			d="M31.195,1.145c-1.478-1.556-3.874-1.556-5.351,0L13.453,14.188  c-1.478,1.555-1.478,4.076,0,5.632s3.873,1.556,5.351,0L31.195,6.777C32.672,5.222,32.672,2.7,31.195,1.145z"/>
		<path
			d="M25.799,1.145c1.478-1.556,3.874-1.556,5.351,0l12.391,13.042  c1.478,1.555,1.478,4.076,0,5.632s-3.873,1.556-5.351,0L25.799,6.777C24.321,5.222,24.321,2.7,25.799,1.145z"/>
		<path
			d="M55.887,1.145c-1.478-1.556-3.873-1.556-5.351,0L38.146,14.188  c-1.478,1.555-1.478,4.076,0,5.632s3.873,1.556,5.351,0L55.887,6.777C57.365,5.222,57.365,2.7,55.887,1.145z"/>
	</symbol>
	<symbol id="mail" viewBox="0 0 16 13">
		<path
			d="M1344,58V71h16V58h-16Zm14.07,1.084L1352,64.346l-6.07-5.264h12.14ZM1359,69.915h-14V59.667l7,6.065,7-6.065V69.915Z"
			transform="translate(-1344 -58)"/>
	</symbol>
	<symbol id="phone" viewBox="0 0 10 18">
		<path
			d="M1110.39,74h9.22a0.4,0.4,0,0,0,.39-0.4V56.4a0.4,0.4,0,0,0-.39-0.406h-9.22a0.4,0.4,0,0,0-.39.406v17.19A0.394,0.394,0,0,0,1110.39,74Zm4.61-.954a0.608,0.608,0,1,1,.59-0.608A0.6,0.6,0,0,1,1115,73.044ZM1114.02,57.3h1.96V57.8h-1.96V57.3Zm-2.9,1.612h7.76V71.089h-7.76V58.907Z"
			transform="translate(-1110 -56)"/>
	</symbol>
	<symbol id="quotes" viewBox="0 0 52 41">
		<path
			d="M1104.25,4783.96V4761H1127v23.29c0,15.74-14.63,17.71-14.63,17.71l-1.95-4.59s6.5-.99,7.8-6.24a8.245,8.245,0,0,0-1.3-7.21h-12.67Zm-29.25,0V4761h22.75v23.29c0,15.74-14.63,17.71-14.63,17.71l-1.94-4.59s6.5-.99,7.79-6.24a8.257,8.257,0,0,0-1.29-7.21H1075Z"
			transform="translate(-1075 -4761)"/>
	</symbol>
	<symbol id="curve_arrow" viewBox="0 0 291 141">
		<path id="curve-arrow.svg"
			  d="M864.646,637.08H1074.18a22.728,22.728,0,1,1,0,45.455H846.819a31.755,31.755,0,1,0,0,63.509h54.254l-15.2,15.2a4.542,4.542,0,0,0,6.424,6.422l22.973-22.93a4.561,4.561,0,0,0,1.345-3.193v-0.4a4.371,4.371,0,0,0-1.345-3.194l-22.939-22.93a4.542,4.542,0,0,0-6.425,6.422l15.641,15.633H846.819a22.728,22.728,0,1,1,0-45.455H1074.18a31.8,31.8,0,1,0,0-63.609H864.646"
			  transform="translate(-815 -628)"/>
	</symbol>
	<symbol id="logo" viewBox="0 0 61 68">
		<path class="cls-1"
			  d="M54.019,34c0.868-.944,1.7-1.89,2.425-2.838C60.8,25.506,62.088,20.477,60.072,17c-1.2-2.064-3.521-3.414-6.726-3.952a4.437,4.437,0,0,0-8.837.234c-0.726.122-1.458,0.258-2.207,0.422C39.664,5.34,35.4,0,30.5,0S21.339,5.338,18.7,13.7a35.815,35.815,0,0,0-7.654-.93C6.032,12.77,2.533,14.234.93,17c-2.446,4.218.055,10.551,5.993,17C0.986,40.448-1.515,46.78.93,51c1.2,2.067,3.523,3.42,6.725,3.958a4.439,4.439,0,0,0,8.839-.238C17.219,54.6,17.952,54.46,18.7,54.3,21.339,62.66,25.6,68,30.5,68s9.161-5.337,11.8-13.7a35.828,35.828,0,0,0,7.656.93c5.014,0,8.513-1.462,10.116-4.229,2.015-3.477.728-8.506-3.628-14.162C55.713,35.89,54.888,34.944,54.019,34ZM48.938,10.67a2.9,2.9,0,0,1,2.907,2.893c0,0.036-.009.071-0.011,0.107,0,0,0,.006,0,0.009a2.91,2.91,0,0,1-.258,1.088c-0.005.012-.014,0.023-0.02,0.035a2.722,2.722,0,0,1-.245.426c-0.033.048-.074,0.089-0.11,0.133a2.7,2.7,0,0,1-.236.273,2.9,2.9,0,0,1-.229.189c-0.064.05-.123,0.107-0.192,0.151a3.289,3.289,0,0,1-.334.181c-0.052.025-.1,0.057-0.151,0.079a2.8,2.8,0,0,1-.41.126c-0.044.012-.085,0.03-0.13,0.039a2.825,2.825,0,0,1-1.145,0c-0.064-.012-0.123-0.036-0.186-0.053a2.753,2.753,0,0,1-.341-0.106c-0.077-.031-0.149-0.073-0.223-0.11A2.743,2.743,0,0,1,47.373,16a2.505,2.505,0,0,1-.249-0.189c-0.054-.043-0.108-0.083-0.158-0.13a2.947,2.947,0,0,1-.266-0.29c-0.023-.028-0.049-0.056-0.07-0.086a2.785,2.785,0,0,1-.258-0.409l-0.006-.012a2.91,2.91,0,0,1-.3-1.031c0-.007-0.005-0.013-0.006-0.02-0.008-.09-0.027-0.175-0.027-0.267A2.9,2.9,0,0,1,48.938,10.67Zm-4.263,4.139c0.007,0.024.02,0.046,0.026,0.069a4.456,4.456,0,0,0,.219.578c0.026,0.056.06,0.107,0.088,0.161a4.507,4.507,0,0,0,.743,1.043c0.062,0.063.131,0.114,0.2,0.174a4.647,4.647,0,0,0,.42.345c0.072,0.053.15,0.1,0.227,0.145a4.249,4.249,0,0,0,.478.259c0.082,0.038.164,0.074,0.247,0.107a4.446,4.446,0,0,0,.549.168c0.08,0.021.156,0.046,0.237,0.061a4.18,4.18,0,0,0,1.676,0c0.078-.014.151-0.04,0.23-0.06a4.583,4.583,0,0,0,.568-0.177c0.081-.032.157-0.07,0.237-0.107a4.37,4.37,0,0,0,.5-0.269c0.073-.046.146-0.094,0.215-0.144a4.355,4.355,0,0,0,.43-0.354c0.064-.059.13-0.116,0.191-0.18a4.411,4.411,0,0,0,.346-0.416c0.056-.075.117-0.145,0.169-0.222a5.354,5.354,0,0,0,.549-1.233c0.017-.058.041-0.109,0.055-0.167,2.643,0.474,4.522,1.567,5.459,3.181,1.657,2.858.376,7.4-3.515,12.448-0.679.883-1.446,1.764-2.251,2.642a63.939,63.939,0,0,0-8.253-7,63.5,63.5,0,0,0-1.965-10.667C43.394,15.055,44.043,14.917,44.676,14.809ZM37.031,45.265c-2.165,1.245-4.356,2.356-6.538,3.352-2.178-.993-4.366-2.11-6.524-3.352-2.178-1.252-4.242-2.583-6.18-3.959-0.228-2.357-.353-4.8-0.353-7.306s0.125-4.948.353-7.306c1.938-1.376,4-2.706,6.18-3.959s4.357-2.355,6.539-3.35c2.178,0.991,4.366,2.11,6.524,3.35s4.227,2.577,6.179,3.954c0.229,2.359.354,4.8,0.354,7.31s-0.125,4.951-.354,7.31C41.26,42.688,39.2,44.018,37.031,45.265Zm5.954-1.912a61.438,61.438,0,0,1-1.817,9.09,62.126,62.126,0,0,1-8.782-3c1.812-.866,3.626-1.814,5.42-2.846S41.329,44.48,42.985,43.353Zm-14.37,6.095a61.524,61.524,0,0,1-8.786,2.984,61.331,61.331,0,0,1-1.811-9.066c1.64,1.112,3.364,2.2,5.175,3.238C24.985,47.634,26.8,48.584,28.615,49.448Zm-12.5-9.367A61.892,61.892,0,0,1,9.147,34a61.991,61.991,0,0,1,6.966-6.082c-0.148,1.97-.229,4-0.229,6.081S15.965,38.111,16.113,40.081Zm1.9-15.446a61.313,61.313,0,0,1,1.814-9.078,62.214,62.214,0,0,1,8.782,2.994c-1.812.866-3.627,1.814-5.421,2.845C21.381,22.438,19.656,23.523,18.016,24.635Zm14.371-6.081a61.3,61.3,0,0,1,8.785-2.983,61.567,61.567,0,0,1,1.813,9.076C41.329,23.52,39.6,22.431,37.808,21.4S34.2,19.417,32.388,18.553Zm12.5,9.346A60.7,60.7,0,0,1,51.9,34a60.6,60.6,0,0,1-7.014,6.1c0.148-1.976.23-4.012,0.23-6.1S45.035,29.874,44.887,27.9ZM30.5,1.548c4.09,0,7.811,4.962,10.227,12.541a64.541,64.541,0,0,0-10.216,3.6,65.476,65.476,0,0,0-10.233-3.612C22.693,6.506,26.412,1.548,30.5,1.548ZM2.273,17.775c1.657-2.858,5.685-3.458,8.773-3.458a34.16,34.16,0,0,1,7.215.869A63.3,63.3,0,0,0,16.3,25.836a63.868,63.868,0,0,0-8.257,6.995C2.676,26.97.232,21.3,2.273,17.775ZM12.062,57.33a2.9,2.9,0,0,1-2.908-2.894c0-.033.009-0.064,0.01-0.1,0,0,0-.008,0-0.013a2.917,2.917,0,0,1,.257-1.09c0-.011.011-0.021,0.016-0.03a2.923,2.923,0,0,1,.249-0.433c0.033-.047.075-0.089,0.111-0.135a3.175,3.175,0,0,1,.234-0.272c0.075-.072.158-0.133,0.239-0.2,0.061-.048.116-0.1,0.181-0.143a2.883,2.883,0,0,1,.349-0.19c0.047-.022.089-0.053,0.138-0.072a3.03,3.03,0,0,1,.419-0.13c0.041-.011.08-0.028,0.122-0.036a2.883,2.883,0,0,1,.58-0.059,2.924,2.924,0,0,1,.565.057c0.065,0.013.126,0.038,0.191,0.055a2.791,2.791,0,0,1,.335.1c0.08,0.032.152,0.075,0.229,0.114s0.166,0.082.243,0.132a2.922,2.922,0,0,1,.256.194c0.052,0.041.1,0.081,0.151,0.125a2.974,2.974,0,0,1,.273.3c0.022,0.026.044,0.052,0.064,0.078a2.837,2.837,0,0,1,.262.416l0,0.006a2.912,2.912,0,0,1,.3,1.035,0.113,0.113,0,0,1,.005.018,2.524,2.524,0,0,1,.027.266A2.9,2.9,0,0,1,12.062,57.33Zm4.265-4.136c-0.007-.023-0.019-0.043-0.025-0.066a4.4,4.4,0,0,0-.223-0.585c-0.022-.048-0.051-0.09-0.074-0.136a4.512,4.512,0,0,0-.418-0.66,4.394,4.394,0,0,0-.335-0.405c-0.064-.066-0.139-0.123-0.208-0.186a4.456,4.456,0,0,0-.408-0.335c-0.076-.053-0.154-0.1-0.235-0.149a4.279,4.279,0,0,0-.47-0.256c-0.084-.038-0.167-0.075-0.253-0.108a4.54,4.54,0,0,0-.546-0.169c-0.081-.021-0.157-0.045-0.239-0.061a4.194,4.194,0,0,0-1.676,0c-0.079.014-.151,0.04-0.229,0.06a4.647,4.647,0,0,0-.572.177c-0.079.031-.154,0.069-0.232,0.105a4.376,4.376,0,0,0-.5.272c-0.071.046-.143,0.093-0.211,0.143a4.463,4.463,0,0,0-.433.354c-0.064.06-.129,0.117-0.19,0.181a4.266,4.266,0,0,0-.343.413c-0.058.075-.12,0.147-0.172,0.227a4.523,4.523,0,0,0-.227.413,4.331,4.331,0,0,0-.344.889c-0.009.035-.025,0.066-0.033,0.1-2.641-.474-4.518-1.568-5.457-3.189-2.04-3.519.4-9.195,5.766-15.054A63.961,63.961,0,0,0,16.3,42.167,63.3,63.3,0,0,0,18.26,52.808C17.608,52.948,16.959,53.086,16.326,53.194ZM30.5,66.453c-4.089,0-7.809-4.962-10.225-12.539a64.4,64.4,0,0,0,10.216-3.6,65.52,65.52,0,0,0,10.232,3.612C38.308,61.494,34.588,66.453,30.5,66.453ZM58.727,50.227c-1.657,2.856-5.685,3.457-8.773,3.457a34.21,34.21,0,0,1-7.215-.867,63.5,63.5,0,0,0,1.968-10.678,64.2,64.2,0,0,0,8.254-7c0.8,0.879,1.57,1.76,2.249,2.642C59.1,42.832,60.383,47.37,58.727,50.227Z"/>
	</symbol>
	<symbol id="share_arrow" viewBox="0 0 142 39">
		<path
			d="M0,0,515,2103.01H643.776c7.283,0,13.224,6.42,13.224,14.33s-5.941,14.3-13.224,14.3H621.229l6.319,6.85a2.159,2.159,0,0,1,0,2.89,1.771,1.771,0,0,1-2.67,0l-9.548-10.33a2.174,2.174,0,0,1-.559-1.44v-0.19a2.071,2.071,0,0,1,.559-1.44l9.534-10.33a1.771,1.771,0,0,1,2.67,0,2.159,2.159,0,0,1,0,2.89l-6.5,7.05h22.742c5.2,0,9.45-4.59,9.45-10.25s-4.236-10.24-9.45-10.24H515m121.365-28.68M515,2103.01H643.776c7.283,0,13.224,6.42,13.224,14.33s-5.941,14.3-13.224,14.3H621.229l6.319,6.85a2.159,2.159,0,0,1,0,2.89,1.771,1.771,0,0,1-2.67,0l-9.548-10.33a2.174,2.174,0,0,1-.559-1.44v-0.19a2.071,2.071,0,0,1,.559-1.44l9.534-10.33a1.771,1.771,0,0,1,2.67,0,2.159,2.159,0,0,1,0,2.89l-6.5,7.05h22.742c5.2,0,9.45-4.59,9.45-10.25s-4.236-10.24-9.45-10.24H515"
			transform="translate(-515 -2103)"/>
	</symbol>
	<symbol id="search" viewBox="0 0 38 40">
		<path id="search.svg" class="cls-1"
			  d="M445.787,997.721l-11.071-11.67a15.594,15.594,0,1,0-11.072,4.667,15.446,15.446,0,0,0,9.971-3.649l11.1,11.7a0.741,0.741,0,0,0,1.054.021A0.764,0.764,0,0,0,445.787,997.721Zm-22.143-8.513A14.35,14.35,0,1,1,437.8,974.859,14.269,14.269,0,0,1,423.644,989.208Z"
			  transform="translate(-408 -959)"/>
	</symbol>
	<symbol id="icon_burger" viewBox="0 0 16 12">
		<path d="M0,4.5h16v3H0V4.5z M0,9h16v3H0V9z M0,0h16v3H0V0z"></path>
	</symbol>
	<symbol id="icon_arrow_to_right" viewBox="0 0 14 14">
		<path  d="M13.1,6.1v1H0v-1H13.1z"></path>
		<polygon  points="8.4,12.4 7.7,11.7 12.6,6.6 7.7,1.4 8.4,0.7 14,6.6  "></polygon>
	</symbol>
	<symbol id="language" viewBox="0 0 470 470">
		<path d="m432.5,227.5h-77.031c-0.611-37.438-5.782-73.616-14.771-105.694h50.518c4.143,0 7.5-3.357 7.5-7.5s-3.357-7.5-7.5-7.5h-55.112c-8.018-24.165-18.316-45.521-30.553-62.656-2.408-3.371-7.093-4.153-10.462-1.745-3.371,2.407-4.152,7.092-1.745,10.462 10.618,14.868 19.688,33.199 26.965,53.939h-77.809v-69.306c0-4.143-3.357-7.5-7.5-7.5s-7.5,3.357-7.5,7.5v69.306h-77.81c7.277-20.74 16.347-39.071 26.965-53.939 2.407-3.37 1.626-8.055-1.745-10.462-3.372-2.407-8.055-1.625-10.462,1.745-12.237,17.135-22.535,38.492-30.553,62.656h-55.112c-4.143,0-7.5,3.357-7.5,7.5s3.357,7.5 7.5,7.5h50.518c-8.988,32.078-14.159,68.256-14.771,105.694h-77.03c-4.143,0-7.5,3.357-7.5,7.5s3.357,7.5 7.5,7.5h77.031c0.611,37.438 5.782,73.616 14.771,105.694h-50.519c-4.143,0-7.5,3.357-7.5,7.5s3.357,7.5 7.5,7.5h55.112c8.019,24.169 18.32,45.529 30.56,62.666 1.464,2.049 3.77,3.142 6.11,3.142 1.508,0 3.031-0.454 4.353-1.397 3.37-2.408 4.151-7.092 1.744-10.463-10.621-14.869-19.693-33.204-26.972-53.947h77.81v69.305c0,4.143 3.357,7.5 7.5,7.5s7.5-3.357 7.5-7.5v-69.306h77.81c-7.278,20.744-16.351,39.078-26.972,53.947-2.407,3.371-1.626,8.055 1.744,10.463 1.321,0.943 2.844,1.397 4.353,1.397 2.341,0 4.646-1.093 6.11-3.142 12.24-17.137 22.54-38.497 30.56-62.666h55.112c4.143,0 7.5-3.357 7.5-7.5s-3.357-7.5-7.5-7.5h-50.519c8.989-32.078 14.16-68.256 14.771-105.694h77.031c4.143,0 7.5-3.357 7.5-7.5s-3.357-7.499-7.5-7.499zm-107.36-105.694c9.313,31.683 14.695,67.958 15.326,105.694h-97.966v-105.694h82.64zm-180.28,0h82.64v105.694h-97.966c0.632-37.737 6.013-74.011 15.326-105.694zm0,226.388c-9.313-31.683-14.695-67.958-15.326-105.694h97.966v105.694h-82.64zm180.28,0h-82.64v-105.694h97.966c-0.632,37.737-6.013,74.012-15.326,105.694z"></path><path d="M401.17,68.83C356.784,24.444,297.771,0,235,0S113.216,24.444,68.83,68.83S0,172.229,0,235.001   c0,46.271,13.391,90.899,38.764,129.316l-28.718,86.148c-0.898,2.695-0.197,5.667,1.812,7.676c2.009,2.008,4.979,2.708,7.676,1.812   l86.15-28.716C144.102,456.609,188.729,470,235,470c62.771,0,121.784-24.444,166.17-68.83S470,297.771,470,235.001   C470,172.229,445.556,113.216,401.17,68.83z M235,455c-44.491,0-87.355-13.222-123.961-38.235   c-1.262-0.862-2.739-1.308-4.231-1.308c-0.797,0-1.598,0.127-2.372,0.385L29.02,440.979l25.14-75.414   c0.741-2.225,0.399-4.668-0.923-6.604C28.222,322.357,15,279.492,15,235.001C15,113.692,113.691,15,235,15s220,98.692,220,220.001   C455,356.309,356.309,455,235,455z"></path>
	</symbol>
	<symbol id="star" viewBox="0 0 28.649999618530273 27">
		<path d="M1456.06,495.239l1.02,0.994-1.06-.777L1454.37,505l8.85-4.612,1.98-1.023-1.64,1.189,8.52,4.446-1.69-9.769v0l-0.23-1.368,0.35,1.246,7.04-6.791-9.9-1.425-3.75-.585,3.49,0.061L1463.22,478l-4.42,8.888-9.9,1.425,7.16,6.918v0.008Z"/>
	</symbol>
</svg>