<svg id="advantage-icon3.svg" xmlns="http://www.w3.org/2000/svg" xmlns:xlink="http://www.w3.org/1999/xlink" width="63" height="80" viewBox="0 0 63 80">
  <defs>
    <style>
      .cls-1 {
        fill: #fff;
        stroke: #fff;
        stroke-linejoin: round;
        stroke-width: 1px;
        filter: url(#filter);
      }

      .cls-1, .cls-2 {
        fill-rule: evenodd;
      }

      .cls-2 {
        fill: #6395c4;
      }
    </style>
    <filter id="filter" x="1085" y="2002" width="63" height="80" filterUnits="userSpaceOnUse">
      <feOffset result="offset" dx="-2.868" dy="4.096" in="SourceAlpha"/>
      <feGaussianBlur result="blur" stdDeviation="2.828"/>
      <feFlood result="flood" flood-color="#0d0c0d"/>
      <feComposite result="composite" operator="in" in2="blur"/>
      <feBlend result="blend" in="SourceGraphic"/>
    </filter>
  </defs>
  <g style="fill: #fff; filter: url(#filter)">
    <path id="Фигура_3" data-name="Фигура 3" class="cls-1" d="M1114.36,2064.25a0.482,0.482,0,0,1-.39-0.21l-3.71-6.45-7.51,2.53a0.435,0.435,0,0,1-.46-0.1,0.43,0.43,0,0,1-.1-0.44l5.48-14.44a0.452,0.452,0,0,1,.57-0.25,0.424,0.424,0,0,1,.26.54l-5.17,13.6,6.99-2.34a0.479,0.479,0,0,1,.53.18l3.42,5.96,3.46-9.12a0.436,0.436,0,0,1,.56-0.25,0.405,0.405,0,0,1,.26.54l-3.78,9.98a0.441,0.441,0,0,1-.38.27h-0.03Zm9.76,5.75h-0.03a0.4,0.4,0,0,1-.39-0.27l-8.13-21.45a0.408,0.408,0,0,1,.26-0.54,0.454,0.454,0,0,1,.56.25l7.8,20.59,3.45-5.94a0.429,0.429,0,0,1,.51-0.2l7,2.34-6.81-17.92a0.408,0.408,0,0,1,.26-0.54,0.437,0.437,0,0,1,.56.25l7.12,18.77a0.37,0.37,0,0,1-.11.43,0.4,0.4,0,0,1-.44.1l-7.52-2.53-3.7,6.45A0.458,0.458,0,0,1,1124.12,2070Zm1.04-20.81a11.854,11.854,0,0,1-3.15-.61,11.228,11.228,0,0,0-3.02-.6,11.548,11.548,0,0,0-3.02.6,8.254,8.254,0,0,1-4.4.44,7.572,7.572,0,0,1-3.39-2.92,10.082,10.082,0,0,0-1.98-2.11,11.23,11.23,0,0,0-2.73-1.18c-1.48-.49-3.01-1-3.9-2.17s-0.91-2.71-.95-4.21a9.862,9.862,0,0,0-.33-2.88,10.126,10.126,0,0,0-1.45-2.42c-0.91-1.24-1.85-2.53-1.85-4.04s0.94-2.79,1.85-4.04a9.936,9.936,0,0,0,1.45-2.42,9.821,9.821,0,0,0,.33-2.88c0.04-1.5.07-3.05,0.95-4.2,0.89-1.18,2.42-1.69,3.9-2.18a10.856,10.856,0,0,0,2.73-1.18,10.082,10.082,0,0,0,1.98-2.11,7.611,7.611,0,0,1,3.39-2.91,8.263,8.263,0,0,1,4.4.44,8.024,8.024,0,0,0,6.04,0,8.265,8.265,0,0,1,4.41-.44,7.586,7.586,0,0,1,3.38,2.91,10.115,10.115,0,0,0,1.99,2.11,10.325,10.325,0,0,0,2.72,1.18c1.47,0.49,3.01,1,3.89,2.18,0.9,1.16.92,2.7,0.96,4.2a10.555,10.555,0,0,0,.32,2.88,10.323,10.323,0,0,0,1.46,2.42c0.92,1.25,1.86,2.54,1.86,4.04s-0.94,2.8-1.86,4.04a10.529,10.529,0,0,0-1.46,2.42,10.674,10.674,0,0,0-.32,2.89c-0.04,1.49-.06,3.04-0.96,4.2-0.88,1.18-2.42,1.68-3.89,2.17a11.027,11.027,0,0,0-2.72,1.18,10.115,10.115,0,0,0-1.99,2.11,7.548,7.548,0,0,1-3.38,2.92A4.623,4.623,0,0,1,1125.16,2049.19Zm-6.17-2.05a12.269,12.269,0,0,1,3.28.63,7.277,7.277,0,0,0,3.87.44,6.7,6.7,0,0,0,2.95-2.62,8.1,8.1,0,0,1,5.14-3.57c1.41-.48,2.74-0.92,3.46-1.88,0.73-.94.75-2.29,0.8-3.73a10.76,10.76,0,0,1,.36-3.12,10.622,10.622,0,0,1,1.58-2.64c0.82-1.14,1.69-2.32,1.69-3.56s-0.85-2.42-1.69-3.56a7.38,7.38,0,0,1-1.94-5.76c-0.05-1.43-.07-2.79-0.8-3.73-0.72-.96-2.05-1.4-3.46-1.88a11.154,11.154,0,0,1-2.96-1.29,11.551,11.551,0,0,1-2.18-2.28,6.759,6.759,0,0,0-2.95-2.62,7.277,7.277,0,0,0-3.87.44,8.725,8.725,0,0,1-6.56,0,7.286,7.286,0,0,0-3.87-.44,6.835,6.835,0,0,0-2.96,2.62,10.71,10.71,0,0,1-2.17,2.28,11.3,11.3,0,0,1-2.96,1.29c-1.41.48-2.75,0.92-3.47,1.88-0.72.94-.75,2.3-0.78,3.73a10.724,10.724,0,0,1-.38,3.12,10.285,10.285,0,0,1-1.57,2.64c-0.83,1.14-1.69,2.33-1.69,3.56s0.86,2.42,1.69,3.56a10.285,10.285,0,0,1,1.57,2.64,10.766,10.766,0,0,1,.38,3.12c0.03,1.44.06,2.79,0.78,3.73,0.72,0.96,2.06,1.4,3.47,1.88a11.3,11.3,0,0,1,2.96,1.29,10.71,10.71,0,0,1,2.17,2.28,6.771,6.771,0,0,0,2.96,2.62,7.286,7.286,0,0,0,3.87-.44A12.2,12.2,0,0,1,1118.99,2047.14Z" transform="translate(-1085 -2002)" style="stroke: inherit; filter: none; fill: inherit"/>
  </g>
  <use xlink:href="#Фигура_3" style="stroke: #fff; filter: none; fill: none"/>
  <path class="cls-2" d="M1120.71,2014c-1.08,0-.72,2.37-0.72,2.37s-2.31,6.53-4.52,8.27a4.924,4.924,0,0,0-.95,1.53h0c-0.04.11-.08,0.22-0.12,0.32a2.862,2.862,0,0,1-1.13,1.2l2.2,9.85a50.076,50.076,0,0,0,6.85.38,14.085,14.085,0,0,0,3.98-.13c3.93-.86,2.94-3.67,2.94-3.67a2.793,2.793,0,0,0,.91-3.67,2.511,2.511,0,0,0,.04-3.71,2.3,2.3,0,0,0-.3-2.85c-1.64-1.54-6.09-.52-6.09-0.52h0c-0.31.06-.64,0.12-0.99,0.21,0,0-1.54.74,0-4.05S1121.79,2014,1120.71,2014Zm-6.82,22.83-1.68-8.15a1.084,1.084,0,0,0-1.01-.85H1108v9.84h5.21A0.67,0.67,0,0,0,1113.89,2036.83Z" transform="translate(-1085 -2002)"/>
</svg>
