<svg id="advantage-icon5.svg" xmlns="http://www.w3.org/2000/svg" xmlns:xlink="http://www.w3.org/1999/xlink" width="83" height="34" viewBox="0 0 83 34">
  <defs>
    <style>
      .cls-1, .cls-2, .cls-3 {
        fill: #fff;
      }

      .cls-1 {
        filter: url(#filter);
      }

      .cls-2 {
        filter: url(#filter-2);
      }

      .cls-3 {
        filter: url(#filter-3);
      }

      .cls-4 {
        fill: #6395c4;
        fill-rule: evenodd;
      }
    </style>
    <filter id="filter" x="473" y="2439" width="41" height="17" filterUnits="userSpaceOnUse">
      <feOffset result="offset" dx="-2.868" dy="4.096" in="SourceAlpha"/>
      <feGaussianBlur result="blur" stdDeviation="2.828"/>
      <feFlood result="flood" flood-color="#0d0c0d"/>
      <feComposite result="composite" operator="in" in2="blur"/>
      <feBlend result="blend" in="SourceGraphic"/>
    </filter>
    <filter id="filter-2" x="462" y="2444" width="41" height="17" filterUnits="userSpaceOnUse">
      <feOffset result="offset" dx="-2.868" dy="4.096" in="SourceAlpha"/>
      <feGaussianBlur result="blur" stdDeviation="2.828"/>
      <feFlood result="flood" flood-color="#0d0c0d"/>
      <feComposite result="composite" operator="in" in2="blur"/>
      <feBlend result="blend" in="SourceGraphic"/>
    </filter>
    <filter id="filter-3" x="455" y="2449" width="41" height="17" filterUnits="userSpaceOnUse">
      <feOffset result="offset" dx="-2.868" dy="4.096" in="SourceAlpha"/>
      <feGaussianBlur result="blur" stdDeviation="2.828"/>
      <feFlood result="flood" flood-color="#0d0c0d"/>
      <feComposite result="composite" operator="in" in2="blur"/>
      <feBlend result="blend" in="SourceGraphic"/>
    </filter>
  </defs>
  <rect class="cls-1" x="28" y="3" width="26" height="2"/>
  <rect id="Rectangle_15_copy" data-name="Rectangle 15 copy" class="cls-2" x="17" y="8" width="26" height="2"/>
  <rect id="Rectangle_15_copy_2" data-name="Rectangle 15 copy 2" class="cls-3" x="10" y="13" width="26" height="2"/>
  <path id="Forma_1" data-name="Forma 1" class="cls-4" d="M536.217,2454.66a32.1,32.1,0,0,0-3.9-1.09,1.167,1.167,0,0,1-1.1-.72l-4.336-11.13a1.175,1.175,0,0,0-1.1-.72h-12.09a1.153,1.153,0,0,0-1.151.88l-4.805,22.96a1.036,1.036,0,0,0,.247.9,1.216,1.216,0,0,0,.9.4h7.9c0.188-4.7,4.328-8.48,9.426-8.48s9.238,3.78,9.426,8.48h1.185a1.136,1.136,0,0,0,1.175-1.09v-7.17C538,2457.84,537.134,2455.05,536.217,2454.66Zm-9.246-4.47a0.692,0.692,0,0,1-.543.25H514.252a0.7,0.7,0,0,1-.517-0.22,0.6,0.6,0,0,1-.151-0.51l1.015-5.67a0.673,0.673,0,0,1,.668-0.53h9.368a0.676,0.676,0,0,1,.649.46l1.795,5.67A0.586,0.586,0,0,1,526.971,2450.19Z" transform="translate(-455 -2439)"/>
  <path id="Forma_1-2" data-name="Forma 1" class="cls-4" d="M494.926,2461.42a5.791,5.791,0,1,0,5.711,5.8A5.756,5.756,0,0,0,494.926,2461.42Zm0,8.69a2.9,2.9,0,1,1,2.856-2.89A2.875,2.875,0,0,1,494.926,2470.11ZM538,2457.14v6.18a2.773,2.773,0,0,1-2.755,2.79H532.3a7.544,7.544,0,0,0-14.957,0H502.4a7.539,7.539,0,0,0-14.948,0h-3.691a2.773,2.773,0,0,1-2.754-2.79v-6.18H538Zm-13.178,4.28a5.791,5.791,0,1,0,5.711,5.8A5.763,5.763,0,0,0,524.822,2461.42Zm0,8.69a2.9,2.9,0,1,1,2.856-2.89A2.875,2.875,0,0,1,524.822,2470.11Z" transform="translate(-455 -2439)"/>
</svg>
