<svg id="advantage-icon8.svg" xmlns="http://www.w3.org/2000/svg" xmlns:xlink="http://www.w3.org/1999/xlink" width="77" height="69" viewBox="0 0 77 69">
  <defs>
    <style>
      .cls-1 {
        fill: #6395c4;
      }

      .cls-1, .cls-2 {
        fill-rule: evenodd;
      }

      .cls-2 {
        fill: #fff;
        opacity: 0.92;
        filter: url(#filter);
      }
    </style>
    <filter id="filter" x="1378" y="2424" width="77" height="69" filterUnits="userSpaceOnUse">
      <feOffset result="offset" dx="-2.868" dy="4.096" in="SourceAlpha"/>
      <feGaussianBlur result="blur" stdDeviation="2.828"/>
      <feFlood result="flood" flood-color="#0d0c0d"/>
      <feComposite result="composite" operator="in" in2="blur"/>
      <feBlend result="blend" in="SourceGraphic"/>
    </filter>
  </defs>
  <path class="cls-1" d="M1412.5,2448a12.5,12.5,0,1,0,12.5,12.5A12.5,12.5,0,0,0,1412.5,2448Zm0.99,19.21v2.24h-2.15v-2.09a8.769,8.769,0,0,1-3.73-.94l0.66-2.56a7.775,7.775,0,0,0,3.64.96c1.25,0,2.1-.48,2.1-1.36,0-.83-0.7-1.36-2.32-1.91-2.35-.79-3.95-1.88-3.95-4.01,0-1.93,1.36-3.45,3.71-3.91v-2.08h2.15v1.93a8.017,8.017,0,0,1,3.18.72l-0.64,2.48a7.314,7.314,0,0,0-3.16-.74c-1.42,0-1.88.61-1.88,1.23,0,0.72.76,1.18,2.63,1.88,2.61,0.92,3.66,2.13,3.66,4.1S1416.01,2466.77,1413.49,2467.21Z" transform="translate(-1378 -2424)"/>
  <path id="Forma_1" data-name="Forma 1" class="cls-2" d="M1448.06,2442.43c0.06,0.18,0-.02,0,0h0Zm0,9.64v-9.64a1.927,1.927,0,0,0-1.94-1.93v-12.54a0.96,0.96,0,0,0-.96-0.96h-49.41a7.729,7.729,0,0,0-7.75,7.71,6.507,6.507,0,0,0,.04.77,1.416,1.416,0,0,0-.04.2v37.6a7.738,7.738,0,0,0,7.75,7.72h50.37a1.927,1.927,0,0,0,1.94-1.93v-9.64a1.94,1.94,0,0,0,1.94-1.93V2454A1.933,1.933,0,0,0,1448.06,2452.07Zm-52.31-23.14h48.44v11.57h-1.94v-7.72a1.931,1.931,0,0,0-1.94-1.92h-44.56a1.931,1.931,0,0,0-1.94,1.92v7.38A5.777,5.777,0,0,1,1395.75,2428.93Zm0,5.78v-1.93h44.56v1.93h-44.56Zm44.56,1.93v3.86h-44.56v-3.86h44.56Zm5.81,42.43h-50.37a5.8,5.8,0,0,1-5.81-5.79V2439.8a7.719,7.719,0,0,0,5.81,2.63h50.37v9.64h-4.84a8.68,8.68,0,1,0,0,17.36h4.84v9.64Zm1.94-11.57h-6.78a6.75,6.75,0,1,1,0-13.5h6.78v13.5Zm-9.69-6.75a2.91,2.91,0,1,0,2.91-2.89A2.9,2.9,0,0,0,1438.37,2460.75Zm3.88,0a0.97,0.97,0,0,1-1.94,0A0.97,0.97,0,1,1,1442.25,2460.75Z" transform="translate(-1378 -2424)"/>
</svg>
