<svg xmlns="http://www.w3.org/2000/svg" width="61" height="68" viewBox="0 0 61 68">
  <defs>
    <style>
      .cls-1 {
        fill: #fff;
        fill-rule: evenodd;
      }
    </style>
  </defs>
  <path class="cls-1" d="M54.019,34c0.868-.944,1.7-1.89,2.425-2.838C60.8,25.506,62.088,20.477,60.072,17c-1.2-2.064-3.521-3.414-6.726-3.952a4.437,4.437,0,0,0-8.837.234c-0.726.122-1.458,0.258-2.207,0.422C39.664,5.34,35.4,0,30.5,0S21.339,5.338,18.7,13.7a35.815,35.815,0,0,0-7.654-.93C6.032,12.77,2.533,14.234.93,17c-2.446,4.218.055,10.551,5.993,17C0.986,40.448-1.515,46.78.93,51c1.2,2.067,3.523,3.42,6.725,3.958a4.439,4.439,0,0,0,8.839-.238C17.219,54.6,17.952,54.46,18.7,54.3,21.339,62.66,25.6,68,30.5,68s9.161-5.337,11.8-13.7a35.828,35.828,0,0,0,7.656.93c5.014,0,8.513-1.462,10.116-4.229,2.015-3.477.728-8.506-3.628-14.162C55.713,35.89,54.888,34.944,54.019,34ZM48.938,10.67a2.9,2.9,0,0,1,2.907,2.893c0,0.036-.009.071-0.011,0.107,0,0,0,.006,0,0.009a2.91,2.91,0,0,1-.258,1.088c-0.005.012-.014,0.023-0.02,0.035a2.722,2.722,0,0,1-.245.426c-0.033.048-.074,0.089-0.11,0.133a2.7,2.7,0,0,1-.236.273,2.9,2.9,0,0,1-.229.189c-0.064.05-.123,0.107-0.192,0.151a3.289,3.289,0,0,1-.334.181c-0.052.025-.1,0.057-0.151,0.079a2.8,2.8,0,0,1-.41.126c-0.044.012-.085,0.03-0.13,0.039a2.825,2.825,0,0,1-1.145,0c-0.064-.012-0.123-0.036-0.186-0.053a2.753,2.753,0,0,1-.341-0.106c-0.077-.031-0.149-0.073-0.223-0.11A2.743,2.743,0,0,1,47.373,16a2.505,2.505,0,0,1-.249-0.189c-0.054-.043-0.108-0.083-0.158-0.13a2.947,2.947,0,0,1-.266-0.29c-0.023-.028-0.049-0.056-0.07-0.086a2.785,2.785,0,0,1-.258-0.409l-0.006-.012a2.91,2.91,0,0,1-.3-1.031c0-.007-0.005-0.013-0.006-0.02-0.008-.09-0.027-0.175-0.027-0.267A2.9,2.9,0,0,1,48.938,10.67Zm-4.263,4.139c0.007,0.024.02,0.046,0.026,0.069a4.456,4.456,0,0,0,.219.578c0.026,0.056.06,0.107,0.088,0.161a4.507,4.507,0,0,0,.743,1.043c0.062,0.063.131,0.114,0.2,0.174a4.647,4.647,0,0,0,.42.345c0.072,0.053.15,0.1,0.227,0.145a4.249,4.249,0,0,0,.478.259c0.082,0.038.164,0.074,0.247,0.107a4.446,4.446,0,0,0,.549.168c0.08,0.021.156,0.046,0.237,0.061a4.18,4.18,0,0,0,1.676,0c0.078-.014.151-0.04,0.23-0.06a4.583,4.583,0,0,0,.568-0.177c0.081-.032.157-0.07,0.237-0.107a4.37,4.37,0,0,0,.5-0.269c0.073-.046.146-0.094,0.215-0.144a4.355,4.355,0,0,0,.43-0.354c0.064-.059.13-0.116,0.191-0.18a4.411,4.411,0,0,0,.346-0.416c0.056-.075.117-0.145,0.169-0.222a5.354,5.354,0,0,0,.549-1.233c0.017-.058.041-0.109,0.055-0.167,2.643,0.474,4.522,1.567,5.459,3.181,1.657,2.858.376,7.4-3.515,12.448-0.679.883-1.446,1.764-2.251,2.642a63.939,63.939,0,0,0-8.253-7,63.5,63.5,0,0,0-1.965-10.667C43.394,15.055,44.043,14.917,44.676,14.809ZM37.031,45.265c-2.165,1.245-4.356,2.356-6.538,3.352-2.178-.993-4.366-2.11-6.524-3.352-2.178-1.252-4.242-2.583-6.18-3.959-0.228-2.357-.353-4.8-0.353-7.306s0.125-4.948.353-7.306c1.938-1.376,4-2.706,6.18-3.959s4.357-2.355,6.539-3.35c2.178,0.991,4.366,2.11,6.524,3.35s4.227,2.577,6.179,3.954c0.229,2.359.354,4.8,0.354,7.31s-0.125,4.951-.354,7.31C41.26,42.688,39.2,44.018,37.031,45.265Zm5.954-1.912a61.438,61.438,0,0,1-1.817,9.09,62.126,62.126,0,0,1-8.782-3c1.812-.866,3.626-1.814,5.42-2.846S41.329,44.48,42.985,43.353Zm-14.37,6.095a61.524,61.524,0,0,1-8.786,2.984,61.331,61.331,0,0,1-1.811-9.066c1.64,1.112,3.364,2.2,5.175,3.238C24.985,47.634,26.8,48.584,28.615,49.448Zm-12.5-9.367A61.892,61.892,0,0,1,9.147,34a61.991,61.991,0,0,1,6.966-6.082c-0.148,1.97-.229,4-0.229,6.081S15.965,38.111,16.113,40.081Zm1.9-15.446a61.313,61.313,0,0,1,1.814-9.078,62.214,62.214,0,0,1,8.782,2.994c-1.812.866-3.627,1.814-5.421,2.845C21.381,22.438,19.656,23.523,18.016,24.635Zm14.371-6.081a61.3,61.3,0,0,1,8.785-2.983,61.567,61.567,0,0,1,1.813,9.076C41.329,23.52,39.6,22.431,37.808,21.4S34.2,19.417,32.388,18.553Zm12.5,9.346A60.7,60.7,0,0,1,51.9,34a60.6,60.6,0,0,1-7.014,6.1c0.148-1.976.23-4.012,0.23-6.1S45.035,29.874,44.887,27.9ZM30.5,1.548c4.09,0,7.811,4.962,10.227,12.541a64.541,64.541,0,0,0-10.216,3.6,65.476,65.476,0,0,0-10.233-3.612C22.693,6.506,26.412,1.548,30.5,1.548ZM2.273,17.775c1.657-2.858,5.685-3.458,8.773-3.458a34.16,34.16,0,0,1,7.215.869A63.3,63.3,0,0,0,16.3,25.836a63.868,63.868,0,0,0-8.257,6.995C2.676,26.97.232,21.3,2.273,17.775ZM12.062,57.33a2.9,2.9,0,0,1-2.908-2.894c0-.033.009-0.064,0.01-0.1,0,0,0-.008,0-0.013a2.917,2.917,0,0,1,.257-1.09c0-.011.011-0.021,0.016-0.03a2.923,2.923,0,0,1,.249-0.433c0.033-.047.075-0.089,0.111-0.135a3.175,3.175,0,0,1,.234-0.272c0.075-.072.158-0.133,0.239-0.2,0.061-.048.116-0.1,0.181-0.143a2.883,2.883,0,0,1,.349-0.19c0.047-.022.089-0.053,0.138-0.072a3.03,3.03,0,0,1,.419-0.13c0.041-.011.08-0.028,0.122-0.036a2.883,2.883,0,0,1,.58-0.059,2.924,2.924,0,0,1,.565.057c0.065,0.013.126,0.038,0.191,0.055a2.791,2.791,0,0,1,.335.1c0.08,0.032.152,0.075,0.229,0.114s0.166,0.082.243,0.132a2.922,2.922,0,0,1,.256.194c0.052,0.041.1,0.081,0.151,0.125a2.974,2.974,0,0,1,.273.3c0.022,0.026.044,0.052,0.064,0.078a2.837,2.837,0,0,1,.262.416l0,0.006a2.912,2.912,0,0,1,.3,1.035,0.113,0.113,0,0,1,.005.018,2.524,2.524,0,0,1,.027.266A2.9,2.9,0,0,1,12.062,57.33Zm4.265-4.136c-0.007-.023-0.019-0.043-0.025-0.066a4.4,4.4,0,0,0-.223-0.585c-0.022-.048-0.051-0.09-0.074-0.136a4.512,4.512,0,0,0-.418-0.66,4.394,4.394,0,0,0-.335-0.405c-0.064-.066-0.139-0.123-0.208-0.186a4.456,4.456,0,0,0-.408-0.335c-0.076-.053-0.154-0.1-0.235-0.149a4.279,4.279,0,0,0-.47-0.256c-0.084-.038-0.167-0.075-0.253-0.108a4.54,4.54,0,0,0-.546-0.169c-0.081-.021-0.157-0.045-0.239-0.061a4.194,4.194,0,0,0-1.676,0c-0.079.014-.151,0.04-0.229,0.06a4.647,4.647,0,0,0-.572.177c-0.079.031-.154,0.069-0.232,0.105a4.376,4.376,0,0,0-.5.272c-0.071.046-.143,0.093-0.211,0.143a4.463,4.463,0,0,0-.433.354c-0.064.06-.129,0.117-0.19,0.181a4.266,4.266,0,0,0-.343.413c-0.058.075-.12,0.147-0.172,0.227a4.523,4.523,0,0,0-.227.413,4.331,4.331,0,0,0-.344.889c-0.009.035-.025,0.066-0.033,0.1-2.641-.474-4.518-1.568-5.457-3.189-2.04-3.519.4-9.195,5.766-15.054A63.961,63.961,0,0,0,16.3,42.167,63.3,63.3,0,0,0,18.26,52.808C17.608,52.948,16.959,53.086,16.326,53.194ZM30.5,66.453c-4.089,0-7.809-4.962-10.225-12.539a64.4,64.4,0,0,0,10.216-3.6,65.52,65.52,0,0,0,10.232,3.612C38.308,61.494,34.588,66.453,30.5,66.453ZM58.727,50.227c-1.657,2.856-5.685,3.457-8.773,3.457a34.21,34.21,0,0,1-7.215-.867,63.5,63.5,0,0,0,1.968-10.678,64.2,64.2,0,0,0,8.254-7c0.8,0.879,1.57,1.76,2.249,2.642C59.1,42.832,60.383,47.37,58.727,50.227Z"/>
</svg>
