<?xml version="1.0" standalone="no"?>
<!DOCTYPE svg PUBLIC "-//W3C//DTD SVG 20010904//EN"
 "http://www.w3.org/TR/2001/REC-SVG-20010904/DTD/svg10.dtd">
<svg version="1.0" xmlns="http://www.w3.org/2000/svg"
 width="300.000000pt" height="300.000000pt" viewBox="0 0 300.000000 300.000000"
 preserveAspectRatio="xMidYMid meet">
<metadata>
Created by potrace 1.11, written by Peter Selinger 2001-2013
</metadata>
<g transform="translate(0.000000,300.000000) scale(0.100000,-0.100000)"
fill="#000000" stroke="none">
<path d="M1403 2962 c-155 -55 -297 -236 -388 -496 l-28 -78 -46 6 c-25 4 -59
9 -76 11 -207 33 -377 21 -500 -34 -80 -37 -128 -81 -161 -147 -81 -166 -5
-404 210 -657 l57 -67 -57 -67 c-69 -81 -153 -208 -188 -285 -85 -186 -67
-368 47 -460 55 -46 78 -57 161 -83 64 -20 69 -23 82 -60 17 -53 84 -112 137
-123 104 -21 209 45 231 144 6 27 13 32 52 41 42 10 46 9 54 -11 96 -250 168
-375 269 -468 81 -75 148 -103 241 -103 89 0 158 28 232 94 95 84 195 247 253
414 30 84 32 86 110 67 58 -14 198 -25 285 -22 211 6 356 75 417 200 24 49 28
69 28 142 0 56 -7 105 -19 145 -36 110 -122 252 -228 377 l-49 57 64 79 c87
107 122 160 167 250 50 101 61 141 65 236 8 168 -74 273 -256 331 -67 21 -73
25 -85 60 -25 73 -100 127 -178 127 -86 0 -153 -49 -183 -134 -16 -43 -20 -47
-64 -55 l-46 -10 -18 56 c-25 82 -98 232 -150 311 -122 183 -293 265 -442 212z
m219 -85 c85 -50 162 -144 232 -283 37 -74 86 -199 86 -219 0 -7 -36 -21 -82
-34 -46 -12 -145 -46 -221 -75 l-138 -54 -107 43 c-59 24 -154 58 -212 75 -58
18 -109 37 -114 41 -12 11 35 134 95 248 77 147 166 244 257 277 56 21 151 12
204 -19z m740 -378 c58 -23 84 -108 54 -168 -44 -85 -178 -85 -222 0 -32 62
-6 141 56 171 34 17 65 16 112 -3z m-1517 -158 c39 -6 82 -14 96 -17 l25 -5
-17 -69 c-21 -80 -56 -270 -64 -345 -4 -40 -11 -54 -33 -70 -73 -54 -223 -179
-273 -229 l-57 -57 -47 53 c-69 79 -160 220 -196 306 -42 103 -51 208 -21 273
22 47 71 97 120 123 30 16 129 43 177 48 53 6 218 0 290 -11z m1738 -21 c186
-70 227 -241 112 -470 -38 -75 -130 -208 -183 -262 l-35 -37 -61 59 c-46 45
-189 164 -293 244 -1 1 -5 24 -8 52 -5 42 -19 126 -39 239 -3 17 -14 62 -24
102 l-18 72 38 6 c40 7 58 1 58 -19 0 -19 61 -77 99 -93 41 -18 97 -19 144 -4
38 13 100 74 112 110 8 26 30 26 98 1z m-1370 -72 c65 -22 137 -47 160 -57
l42 -18 -65 -33 c-83 -42 -260 -143 -328 -188 -29 -19 -55 -32 -59 -29 -7 8
19 166 49 290 l21 88 31 -7 c17 -4 84 -24 149 -46z m776 -35 c23 -101 39 -187
47 -256 l6 -47 -108 69 c-60 37 -162 97 -227 131 -65 34 -117 64 -115 66 12
11 335 121 365 123 6 1 20 -36 32 -86z m-346 -148 c141 -72 374 -213 398 -242
20 -23 24 -73 23 -323 0 -278 -3 -305 -28 -328 -22 -20 -117 -82 -222 -145
-91 -55 -297 -157 -316 -157 -35 0 -377 189 -512 283 -17 12 -33 23 -35 24
-13 7 -22 407 -11 576 3 53 6 60 39 86 104 81 480 291 522 291 9 0 73 -29 142
-65z m-777 -564 l0 -259 -56 43 c-53 40 -168 142 -219 193 l-23 23 77 72 c57
52 193 168 220 187 1 0 1 -117 1 -259z m1384 165 c47 -38 107 -91 134 -117
l49 -47 -49 -49 c-41 -41 -174 -154 -234 -200 -14 -11 -16 15 -16 247 1 229 3
257 16 247 8 -6 53 -43 100 -81z m-1678 -267 c62 -60 227 -198 270 -227 21
-13 38 -32 39 -41 0 -9 2 -23 3 -31 2 -8 6 -37 10 -65 3 -27 9 -66 12 -85 8
-50 53 -250 58 -259 3 -4 -13 -12 -35 -18 -38 -10 -40 -9 -60 24 -29 47 -57
72 -98 90 -95 41 -212 -6 -252 -99 -14 -34 -30 -35 -103 -7 -71 28 -125 74
-155 134 -48 97 -12 255 97 425 54 84 148 200 162 200 5 0 28 -19 52 -41z
m1944 9 c62 -69 127 -161 169 -241 69 -129 90 -238 64 -332 -15 -55 -91 -127
-162 -153 -124 -47 -331 -49 -529 -6 -23 5 -26 8 -18 27 17 42 56 247 75 402
3 22 9 42 13 45 4 4 45 36 92 72 75 57 203 170 234 205 17 19 31 15 62 -19z
m-1325 -463 c35 -19 99 -54 143 -76 43 -22 76 -42 75 -44 -13 -13 -344 -125
-369 -125 -12 0 -62 223 -76 342 l-6 49 84 -55 c46 -30 113 -71 149 -91z m846
98 c-4 -27 -8 -58 -11 -69 -2 -12 -7 -39 -10 -60 -12 -80 -50 -214 -61 -214
-15 0 -272 85 -326 108 l-42 18 141 77 c78 42 178 101 224 131 46 30 85 55 87
55 2 1 1 -20 -2 -46z m-442 -293 c109 -44 306 -110 330 -110 20 0 19 -8 -6
-82 -72 -209 -198 -387 -317 -445 -127 -62 -275 3 -386 171 -59 90 -156 301
-156 340 0 6 44 24 98 39 72 21 330 117 338 126 0 1 45 -17 99 -39z m-842 -26
c27 -8 67 -75 67 -112 0 -73 -52 -124 -126 -124 -95 0 -150 90 -108 177 30 63
87 83 167 59z"/>
</g>
</svg>
