<svg id="SvgjsSvg1000" xmlns="http://www.w3.org/2000/svg" version="1.1" xmlns:xlink="http://www.w3.org/1999/xlink" xmlns:svgjs="http://svgjs.com/svgjs" width="83.89999999999998" height="34.90000000000009"><defs id="SvgjsDefs1001"><filter id="SvgjsFilter1008" width="200%" height="200%" x="-50%" y="-50%"><feGaussianBlur id="SvgjsFeGaussianBlur1009" stdDeviation="4 " result="SvgjsFeGaussianBlur1009Out" in="SourceGraphic"></feGaussianBlur></filter><filter id="SvgjsFilter1012" width="200%" height="200%" x="-50%" y="-50%"><feGaussianBlur id="SvgjsFeGaussianBlur1013" stdDeviation="4 " result="SvgjsFeGaussianBlur1013Out" in="SourceGraphic"></feGaussianBlur></filter><filter id="SvgjsFilter1016" width="200%" height="200%" x="-50%" y="-50%"><feGaussianBlur id="SvgjsFeGaussianBlur1017" stdDeviation="4 " result="SvgjsFeGaussianBlur1017Out" in="SourceGraphic"></feGaussianBlur></filter></defs><path id="SvgjsPath1007" d="M480.1 2448.1L480.1 2446.1L506.1 2446.1L506.1 2448.1Z " fill="#0d0c0d" fill-opacity="1" filter="url(#SvgjsFilter1008)" transform="matrix(1,0,0,1,-454.1,-2438.1)"></path><path id="SvgjsPath1010" d="M483 2444L483 2442L509 2442L509 2444Z " fill="#ffffff" transform="matrix(1,0,0,1,-454.1,-2438.1)"></path><path id="SvgjsPath1011" d="M469.1 2453.1L469.1 2451.1L495.1 2451.1L495.1 2453.1Z " fill="#0d0c0d" fill-opacity="1" filter="url(#SvgjsFilter1012)" transform="matrix(1,0,0,1,-454.1,-2438.1)"></path><path id="SvgjsPath1014" d="M472 2449L472 2447L498 2447L498 2449Z " fill="#ffffff" transform="matrix(1,0,0,1,-454.1,-2438.1)"></path><path id="SvgjsPath1015" d="M462.1 2458.1L462.1 2456.1L488.1 2456.1L488.1 2458.1Z " fill="#0d0c0d" fill-opacity="1" filter="url(#SvgjsFilter1016)" transform="matrix(1,0,0,1,-454.1,-2438.1)"></path><path id="SvgjsPath1018" d="M465 2454L465 2452L491 2452L491 2454Z " fill="#ffffff" transform="matrix(1,0,0,1,-454.1,-2438.1)"></path><path id="SvgjsPath1019" d="M536.217 2454.66C534.8729999999999 2454.12 532.3149999999999 2453.5699999999997 532.3149999999999 2453.5699999999997C531.823 2453.5699999999997 531.387 2453.2799999999997 531.2189999999999 2452.85L526.8829999999999 2441.72C526.7149999999999 2441.29 526.2739999999999 2441 525.7789999999999 2441L513.6889999999999 2441C513.1269999999998 2441 512.6439999999999 2441.37 512.5379999999999 2441.88L507.7329999999999 2464.84C507.6679999999999 2465.1600000000003 507.7569999999999 2465.4900000000002 507.9799999999999 2465.7400000000002C508.2019999999999 2465.9900000000002 508.5349999999999 2466.1400000000003 508.8849999999999 2466.1400000000003L516.7879999999999 2466.1400000000003C516.9759999999999 2461.4400000000005 521.1159999999999 2457.6600000000003 526.2139999999999 2457.6600000000003C531.3109999999999 2457.6600000000003 535.452 2461.4400000000005 535.64 2466.1400000000003L536.8249999999999 2466.1400000000003C537.4739999999999 2466.1400000000003 537.9999999999999 2465.6500000000005 537.9999999999999 2465.05L537.9999999999999 2457.88C537.9999999999999 2457.84 537.1339999999999 2455.05 536.2169999999999 2454.6600000000003ZM526.971 2450.19C526.842 2450.35 526.642 2450.44 526.428 2450.44L514.252 2450.44C514.0519999999999 2450.44 513.8629999999999 2450.36 513.7349999999999 2450.2200000000003C513.6059999999999 2450.0800000000004 513.5509999999999 2449.8900000000003 513.584 2449.71L514.5989999999999 2444.04C514.6539999999999 2443.74 514.9369999999999 2443.5099999999998 515.2669999999999 2443.5099999999998L524.635 2443.5099999999998C524.935 2443.5099999999998 525.2 2443.7 525.284 2443.97L527.079 2449.64C527.1389999999999 2449.83 527.0989999999999 2450.0299999999997 526.971 2450.19Z " fill="#6395c4" transform="matrix(1,0,0,1,-454.1,-2438.1)"></path><path id="SvgjsPath1020" d="M538 2463.32C538 2464.86 536.767 2466.11 535.245 2466.11L532.298 2466.11C531.766 2462.4100000000003 528.616 2459.56 524.815 2459.56C521.023 2459.56 517.874 2462.41 517.341 2466.11L502.402 2466.11C501.87 2462.4100000000003 498.71999999999997 2459.56 494.928 2459.56C491.136 2459.56 487.987 2462.41 487.454 2466.11L483.76300000000003 2466.11C482.242 2466.11 481.009 2464.86 481.009 2463.32L481.009 2457.1400000000003L538 2457.1400000000003ZM530.533 2467.22C530.533 2470.3999999999996 527.971 2473 524.822 2473C521.664 2473 519.102 2470.4 519.102 2467.22C519.102 2464.02 521.664 2461.4199999999996 524.822 2461.4199999999996C527.971 2461.4199999999996 530.533 2464.0199999999995 530.533 2467.22ZM500.637 2467.22C500.637 2470.3999999999996 498.085 2473 494.926 2473C491.768 2473 489.215 2470.4 489.215 2467.22C489.215 2464.02 491.768 2461.4199999999996 494.926 2461.4199999999996C498.085 2461.4199999999996 500.637 2464.0199999999995 500.637 2467.22ZM497.782 2467.22C497.782 2465.62 496.506 2464.3199999999997 494.926 2464.3199999999997C493.347 2464.3199999999997 492.07099999999997 2465.62 492.07099999999997 2467.22C492.07099999999997 2468.81 493.347 2470.1099999999997 494.926 2470.1099999999997C496.506 2470.1099999999997 497.782 2468.8099999999995 497.782 2467.22ZM527.678 2467.22C527.678 2465.62 526.392 2464.3199999999997 524.822 2464.3199999999997C523.243 2464.3199999999997 521.967 2465.62 521.967 2467.22C521.967 2468.81 523.2429999999999 2470.1099999999997 524.822 2470.1099999999997C526.392 2470.1099999999997 527.678 2468.8099999999995 527.678 2467.22Z " fill="#6395c4" transform="matrix(1,0,0,1,-454.1,-2438.1)"></path></svg>