<?xml version="1.0" encoding="utf-8"?>
<!-- Generator: Adobe Illustrator 19.2.1, SVG Export Plug-In . SVG Version: 6.00 Build 0)  -->
<svg version="1.1" id="advantage-icon7.svg" xmlns="http://www.w3.org/2000/svg" xmlns:xlink="http://www.w3.org/1999/xlink"
	 x="0px" y="0px" viewBox="0 0 66 82" style="enable-background:new 0 0 66 82;" xml:space="preserve">
<path style="fill:#6395C4;" d="M28.03,39.22c0.4845-0.4736,0.6311-1.1948,0.37-1.8201c-0.2607-0.6631-0.8881-1.1101-1.6-1.1399
	c-0.4338,0.0066-0.8459,0.1909-1.14,0.51l-3.16,3.26c-0.6599,0.6794-0.6599,1.7605,0,2.4399c0.3076,0.3223,0.7346,0.5032,1.1801,0.5
	c0.4458,0.0002,0.8735-0.176,1.1899-0.49L28.03,39.22z M31.1901,40.5701c-0.2607-0.6631-0.8881-1.1101-1.6-1.1399
	c-0.4348,0.002-0.8488,0.1873-1.14,0.51L25.14,43.3401c-0.6499,0.6873-0.6499,1.7627,0,2.45c0.3138,0.3191,0.7424,0.4993,1.1899,0.5
	c0.4451,0.0012,0.8712-0.1794,1.1801-0.5l3.3101-3.4099c0.4843-0.4697,0.6311-1.188,0.3699-1.8101H31.1901z M33.1201,46.05
	L33.1201,46.05c0.4797-0.4722,0.626-1.1875,0.37-1.8101c-0.2607-0.6631-0.8881-1.1101-1.6-1.1399
	c-0.433,0.0007-0.8462,0.1819-1.14,0.5l-0.03,0.03c-0.11,0.1201-0.62,0.6399-1.12,1.1599c-0.72,0.74-1,1.03-1.12,1.1599v-0.01
	c-0.4875,0.4973-0.6259,1.2402-0.35,1.8799c0.3042,0.8479,1.2382,1.2886,2.0861,0.9844c0.2408-0.0864,0.458-0.2283,0.6339-0.4143
	l0.02-0.03c0.1-0.1001,0.51-0.52,0.95-0.97C32.71,46.47,33.01,46.1599,33.12,46.05H33.1201z M40.8101,30.95h-4.86l-0.14,0.1399
	c-1.2816,1.3594-3.0187,2.1995-4.88,2.3601c-0.299,0.0002-0.5972-0.03-0.89-0.0901c-0.895-0.1497-1.6643-0.7183-2.0699-1.53
	c-0.322-0.8813-0.0857-1.8696,0.6-2.51l4.1899-4.3201h-3.95c-0.5984,0.0835-1.1459,0.3823-1.54,0.8401L27.15,25.95
	c-0.35,0.3-0.6801,0.6201-1.01,0.95l-0.58,0.55c-0.97,0.9199-2.02,1.8101-3.1899,1.8101H18v12.02h3.1899l0.0699-0.4199
	c0.072-0.53,0.3102-1.0237,0.6801-1.4099l3.16-3.25c0.4343-0.4661,1.043-0.7307,1.6801-0.73
	c0.7107,0.0088,1.3867,0.3088,1.87,0.8301c0.4489,0.4883,0.6798,1.1379,0.64,1.8l-0.02,0.51l0.48,0.02
	c0.7305,0.0371,1.4042,0.4053,1.83,1c0.4469,0.6018,0.611,1.3679,0.45,2.1001l-0.12,0.51l0.5,0.1001
	c1.2457,0.2759,2.088,1.4404,1.96,2.71l-0.04,0.5l0.49,0.04c0.8192,0.0803,1.5402,0.5747,1.91,1.3101
	c0.3993,0.7441,0.4105,1.636,0.03,2.3899l-0.16,0.3201l0.85,0.8799c0.2941,0.3191,0.7062,0.5034,1.14,0.51
	c0.7119-0.0298,1.3392-0.4768,1.6-1.1399c0.2596-0.6204,0.1173-1.3362-0.36-1.8101l-4.58-4.72
	c-0.1152-0.0942-0.1522-0.2546-0.09-0.3899c0.0648-0.2112,0.2886-0.3298,0.4998-0.2651c0.0557,0.0171,0.1069,0.0461,0.1503,0.0852
	l5.46,5.6299c0.6206,0.6553,1.6548,0.6831,2.3099,0.0625c0.1829-0.1731,0.3231-0.3862,0.41-0.6226
	c0.2715-0.6433,0.1339-1.3865-0.35-1.8899l-5.46-5.6299c-0.114-0.0908-0.1511-0.2476-0.09-0.3799
	c0.0543-0.2107,0.2692-0.3374,0.4799-0.2832c0.0636,0.0166,0.1221,0.0486,0.1702,0.0933l6.35,6.55
	c0.2952,0.3174,0.7067,0.5015,1.14,0.51c0.713-0.0266,1.3418-0.4749,1.6-1.1399c0.2605-0.6235,0.1183-1.3425-0.36-1.8201l-6.36-6.55
	c-0.114-0.0908-0.1511-0.2476-0.09-0.3799c0.0543-0.2107,0.2692-0.3374,0.4799-0.2832c0.0636,0.0166,0.1221,0.0486,0.1702,0.0933
	l5.58,5.76c0.2961,0.3147,0.7078,0.4954,1.14,0.5c0.7119-0.0298,1.3392-0.4768,1.6-1.1399c0.2611-0.6221,0.1143-1.3406-0.37-1.8101
	L40.8101,30.95z M49.63,29.26c-1.17,0-2.22-0.8899-3.1899-1.8101c-0.1899-0.1799-0.38-0.3701-0.58-0.55
	c-0.33-0.3301-0.66-0.6499-1.01-0.95l-0.12-0.1101c-0.3942-0.4578-0.9417-0.7566-1.54-0.8401H34.88
	c-0.5929-0.0464-1.1755,0.1736-1.59,0.6001l-4.16,4.29c-0.4095,0.3567-0.5835,0.9136-0.45,1.4399
	c0.2247,0.627,0.7653,1.0876,1.42,1.21c0.4265,0.0957,0.8665,0.116,1.3,0.0601c0.7891-0.1094,1.5458-0.3855,2.22-0.8101
	c0.4712-0.2908,0.9163-0.6221,1.33-0.99c0.08-0.0801,0.17-0.1699,0.25-0.26c0.1409-0.2012,0.3508-0.3435,0.59-0.3999h5.1801
	c0.1064-0.0029,0.2089,0.041,0.28,0.1201l8.9301,9.1899c0.3699,0.3862,0.608,0.8799,0.6801,1.4099l0.0699,0.4199H54v-12.02h-4.37
	V29.26z M34.6,46.3899c-0.4487,0.0046-0.8772,0.1882-1.1899,0.51l-1.12,1.1599c-0.4756,0.4751-0.6141,1.1919-0.35,1.8101
	c0.2606,0.6572,0.8834,1.0999,1.59,1.1299c0.4343-0.0046,0.8472-0.1892,1.14-0.51c0.79-0.8201,1.03-1.0601,1.11-1.1499v0.01
	c0.4832-0.5039,0.6206-1.2466,0.35-1.8899C35.8943,46.8181,35.2837,46.3911,34.6,46.3899z"/>
<image style="overflow:visible;" width="66" height="82" xlink:href="1AC02B9E.png" >
</image>
<path style="fill:none;enable-background:new    ;" d="z"/>
</svg>
